<?xml version="1.0" encoding="UTF-8" standalone="no"?>
<!DOCTYPE svg PUBLIC "-//W3C//DTD SVG 1.1//EN"
 "http://www.w3.org/Graphics/SVG/1.1/DTD/svg11.dtd">
<!-- Generated by graphviz version 9.0.0 (20230911.1827)
 -->
<!-- Title: CNextBlockCmd Pages: 1 -->
<svg width="249pt" height="94pt"
 viewBox="0.00 0.00 248.88 93.75" xmlns="http://www.w3.org/2000/svg" xmlns:xlink="http://www.w3.org/1999/xlink">
<g id="graph0" class="graph" transform="scale(1 1) rotate(0) translate(4 89.75)">
<title>CNextBlockCmd</title>
<!-- Node1 -->
<g id="Node000001" class="node">
<title>Node1</title>
<g id="a_Node000001"><a xlink:title=" ">
<polygon fill="#999999" stroke="#666666" points="93.12,-19.25 5.12,-19.25 5.12,0 93.12,0 93.12,-19.25"/>
<text text-anchor="middle" x="49.12" y="-5.75" font-family="Helvetica,sans-Serif" font-size="10.00">CNextBlockCmd</text>
</a>
</g>
</g>
<!-- Node2 -->
<g id="Node000002" class="node">
<title>Node2</title>
<g id="a_Node000002"><a xlink:href="class_c_d_list_cmd.html" target="_top" xlink:title=" ">
<polygon fill="white" stroke="#bfbfbf" points="66.25,-85.75 0,-85.75 0,-66.5 66.25,-66.5 66.25,-85.75"/>
<text text-anchor="middle" x="33.12" y="-72.25" font-family="Helvetica,sans-Serif" font-size="10.00">CDListCmd</text>
</a>
</g>
</g>
<!-- Node2&#45;&gt;Node1 -->
<g id="edge1_Node000001_Node000002" class="edge">
<title>Node2&#45;&gt;Node1</title>
<g id="a_edge1_Node000001_Node000002"><a xlink:title=" ">
<path fill="none" stroke="#63b8ff" d="M38.11,-55.02C41.06,-43.12 44.66,-28.63 46.92,-19.52"/>
<polygon fill="#63b8ff" stroke="#63b8ff" points="34.72,-54.14 35.71,-64.69 41.52,-55.82 34.72,-54.14"/>
</a>
</g>
</g>
<!-- Node3 -->
<g id="Node000003" class="node">
<title>Node3</title>
<g id="a_Node000003"><a xlink:href="class_c_d_list_cmd_block.html" target="_top" xlink:title=" ">
<polygon fill="white" stroke="#bfbfbf" points="175.62,-85.75 84.62,-85.75 84.62,-66.5 175.62,-66.5 175.62,-85.75"/>
<text text-anchor="middle" x="130.12" y="-72.25" font-family="Helvetica,sans-Serif" font-size="10.00">CDListCmdBlock</text>
</a>
</g>
</g>
<!-- Node3&#45;&gt;Node1 -->
<g id="edge2_Node000001_Node000003" class="edge">
<title>Node3&#45;&gt;Node1</title>
<g id="a_edge2_Node000001_Node000003"><a xlink:title=" ">
<path fill="none" stroke="#9a32cd" stroke-dasharray="5,2" d="M109.98,-59.08C94.39,-46.67 73.37,-29.93 60.55,-19.73"/>
<polygon fill="#9a32cd" stroke="#9a32cd" points="107.68,-61.72 117.68,-65.21 112.04,-56.25 107.68,-61.72"/>
</a>
</g>
<text text-anchor="middle" x="117.75" y="-39" font-family="Helvetica,sans-Serif" font-size="10.00" fill="grey"> NextBlock</text>
</g>
<!-- Node3&#45;&gt;Node3 -->
<g id="edge3_Node000003_Node000003" class="edge">
<title>Node3&#45;&gt;Node3</title>
<g id="a_edge3_Node000003_Node000003"><a xlink:title=" ">
<path fill="none" stroke="#9a32cd" stroke-dasharray="5,2" d="M187.43,-80.61C191.29,-79.57 193.62,-78.08 193.62,-76.12 193.62,-72.65 186.23,-70.63 176.08,-70.06"/>
<polygon fill="#9a32cd" stroke="#9a32cd" points="187,-77.14 177.57,-81.98 187.96,-84.07 187,-77.14"/>
</a>
</g>
<text text-anchor="middle" x="217.25" y="-72.25" font-family="Helvetica,sans-Serif" font-size="10.00" fill="grey"> NextBlock</text>
</g>
</g>
</svg>
