<?xml version="1.0" encoding="UTF-8" standalone="no"?>
<!DOCTYPE svg PUBLIC "-//W3C//DTD SVG 1.1//EN"
 "http://www.w3.org/Graphics/SVG/1.1/DTD/svg11.dtd">
<!-- Generated by graphviz version 9.0.0 (20230911.1827)
 -->
<!-- Title: CDList Pages: 1 -->
<svg width="164pt" height="105pt"
 viewBox="0.00 0.00 164.25 105.00" xmlns="http://www.w3.org/2000/svg" xmlns:xlink="http://www.w3.org/1999/xlink">
<g id="graph0" class="graph" transform="scale(1 1) rotate(0) translate(4 101)">
<title>CDList</title>
<!-- Node1 -->
<g id="Node000001" class="node">
<title>Node1</title>
<g id="a_Node000001"><a xlink:title=" ">
<polygon fill="#999999" stroke="#666666" points="68.5,-19.25 22.5,-19.25 22.5,0 68.5,0 68.5,-19.25"/>
<text text-anchor="middle" x="45.5" y="-5.75" font-family="Helvetica,sans-Serif" font-size="10.00">CDList</text>
</a>
</g>
</g>
<!-- Node2 -->
<g id="Node000002" class="node">
<title>Node2</title>
<g id="a_Node000002"><a xlink:href="class_c_d_list_cmd_block.html" target="_top" xlink:title=" ">
<polygon fill="white" stroke="#bfbfbf" points="91,-97 0,-97 0,-77.75 91,-77.75 91,-97"/>
<text text-anchor="middle" x="45.5" y="-83.5" font-family="Helvetica,sans-Serif" font-size="10.00">CDListCmdBlock</text>
</a>
</g>
</g>
<!-- Node2&#45;&gt;Node1 -->
<g id="edge1_Node000001_Node000002" class="edge">
<title>Node2&#45;&gt;Node1</title>
<g id="a_edge1_Node000001_Node000002"><a xlink:title=" ">
<path fill="none" stroke="#9a32cd" stroke-dasharray="5,2" d="M45.5,-66.1C45.5,-50.95 45.5,-30.98 45.5,-19.6"/>
<polygon fill="#9a32cd" stroke="#9a32cd" points="42,-65.87 45.5,-75.87 49,-65.87 42,-65.87"/>
</a>
</g>
<text text-anchor="middle" x="77.75" y="-50.25" font-family="Helvetica,sans-Serif" font-size="10.00" fill="grey"> CurCmdBlock</text>
<text text-anchor="middle" x="77.75" y="-39" font-family="Helvetica,sans-Serif" font-size="10.00" fill="grey">FirstCmdBlock</text>
</g>
<!-- Node2&#45;&gt;Node2 -->
<g id="edge2_Node000002_Node000002" class="edge">
<title>Node2&#45;&gt;Node2</title>
<g id="a_edge2_Node000002_Node000002"><a xlink:title=" ">
<path fill="none" stroke="#9a32cd" stroke-dasharray="5,2" d="M102.81,-92.62C106.66,-91.41 109,-89.66 109,-87.38 109,-83.31 101.6,-80.95 91.45,-80.28"/>
<polygon fill="#9a32cd" stroke="#9a32cd" points="102.25,-89.16 92.94,-94.22 103.38,-96.07 102.25,-89.16"/>
</a>
</g>
<text text-anchor="middle" x="132.62" y="-83.5" font-family="Helvetica,sans-Serif" font-size="10.00" fill="grey"> NextBlock</text>
</g>
</g>
</svg>
