<?xml version="1.0" encoding="UTF-8" standalone="no"?>
<!DOCTYPE svg PUBLIC "-//W3C//DTD SVG 1.1//EN"
 "http://www.w3.org/Graphics/SVG/1.1/DTD/svg11.dtd">
<!-- Generated by graphviz version 9.0.0 (20230911.1827)
 -->
<!-- Title: CDrawIndexedArraysCmd Pages: 1 -->
<svg width="334pt" height="172pt"
 viewBox="0.00 0.00 333.88 171.50" xmlns="http://www.w3.org/2000/svg" xmlns:xlink="http://www.w3.org/1999/xlink">

<svg id="main" version="1.1" xmlns="http://www.w3.org/2000/svg" xmlns:xlink="http://www.w3.org/1999/xlink" xml:space="preserve" onload="init(evt)">
<style type="text/css"><![CDATA[
.node, .edge {opacity: 0.7;}
.node.selected, .edge.selected {opacity: 1;}
.edge:hover path { stroke: red; }
.edge:hover polygon { stroke: red; fill: red; }
]]></style>
<script type="application/ecmascript" xlink:href="svg.min.js"/>
<svg id="graph" class="graph">
<g id="graph0" class="graph" transform="scale(1 1) rotate(0) translate(4 167.5)">
<title>CDrawIndexedArraysCmd</title>
<!-- Node1 -->
<g id="Node000001" class="node">
<title>Node1</title>
<g id="a_Node000001"><a xlink:title=" ">
<polygon fill="#999999" stroke="#666666" points="192.62,-19.25 65.62,-19.25 65.62,0 192.62,0 192.62,-19.25"/>
<text text-anchor="middle" x="129.12" y="-5.75" font-family="Helvetica,sans-Serif" font-size="10.00">CDrawIndexedArraysCmd</text>
</a>
</g>
</g>
<!-- Node2 -->
<g id="Node000002" class="node">
<title>Node2</title>
<g id="a_Node000002"><a xlink:href="class_c_d_list_cmd.html" target="_top" xlink:title=" ">
<polygon fill="white" stroke="#bfbfbf" points="66.25,-85.75 0,-85.75 0,-66.5 66.25,-66.5 66.25,-85.75"/>
<text text-anchor="middle" x="33.12" y="-72.25" font-family="Helvetica,sans-Serif" font-size="10.00">CDListCmd</text>
</a>
</g>
</g>
<!-- Node2&#45;&gt;Node1 -->
<g id="edge1_Node000001_Node000002" class="edge">
<title>Node2&#45;&gt;Node1</title>
<g id="a_edge1_Node000001_Node000002"><a xlink:title=" ">
<path fill="none" stroke="#63b8ff" d="M55.96,-59.78C74.53,-47.31 100.11,-30.12 115.58,-19.73"/>
<polygon fill="#63b8ff" stroke="#63b8ff" points="54.08,-56.83 47.73,-65.31 57.98,-62.64 54.08,-56.83"/>
</a>
</g>
</g>
<!-- Node3 -->
<g id="Node000003" class="node">
<title>Node3</title>
<g id="a_Node000003"><a xlink:href="class_c_geometry_block.html" target="_top" xlink:title=" ">
<polygon fill="white" stroke="#bfbfbf" points="173.88,-85.75 84.38,-85.75 84.38,-66.5 173.88,-66.5 173.88,-85.75"/>
<text text-anchor="middle" x="129.12" y="-72.25" font-family="Helvetica,sans-Serif" font-size="10.00">CGeometryBlock</text>
</a>
</g>
</g>
<!-- Node3&#45;&gt;Node1 -->
<g id="edge2_Node000001_Node000003" class="edge">
<title>Node3&#45;&gt;Node1</title>
<g id="a_edge2_Node000001_Node000003"><a xlink:title=" ">
<path fill="none" stroke="#9a32cd" stroke-dasharray="5,2" d="M129.12,-54.65C129.12,-42.82 129.12,-28.54 129.12,-19.52"/>
<polygon fill="#9a32cd" stroke="#9a32cd" points="125.63,-54.64 129.13,-64.64 132.63,-54.64 125.63,-54.64"/>
</a>
</g>
<text text-anchor="middle" x="151.25" y="-39" font-family="Helvetica,sans-Serif" font-size="10.00" fill="grey"> Geometry</text>
</g>
<!-- Node4 -->
<g id="Node000004" class="node">
<title>Node4</title>
<g id="a_Node000004"><a xlink:href="class_c_d_list.html" target="_top" xlink:title=" ">
<polygon fill="white" stroke="#bfbfbf" points="238.12,-85.75 192.12,-85.75 192.12,-66.5 238.12,-66.5 238.12,-85.75"/>
<text text-anchor="middle" x="215.12" y="-72.25" font-family="Helvetica,sans-Serif" font-size="10.00">CDList</text>
</a>
</g>
</g>
<!-- Node4&#45;&gt;Node1 -->
<g id="edge3_Node000001_Node000004" class="edge">
<title>Node4&#45;&gt;Node1</title>
<g id="a_edge3_Node000001_Node000004"><a xlink:title=" ">
<path fill="none" stroke="#9a32cd" stroke-dasharray="5,2" d="M200.08,-58.17C193.43,-51.23 185.29,-43.39 177.12,-37.25 168.14,-30.49 157.24,-24.3 148.1,-19.6"/>
<polygon fill="#9a32cd" stroke="#9a32cd" points="197.2,-60.21 206.55,-65.19 202.34,-55.47 197.2,-60.21"/>
</a>
</g>
<text text-anchor="middle" x="201.88" y="-39" font-family="Helvetica,sans-Serif" font-size="10.00" fill="grey"> DList</text>
</g>
<!-- Node5 -->
<g id="Node000005" class="node">
<title>Node5</title>
<g id="a_Node000005"><a xlink:href="class_c_d_list_cmd_block.html" target="_top" xlink:title=" ">
<polygon fill="white" stroke="#bfbfbf" points="260.62,-163.5 169.62,-163.5 169.62,-144.25 260.62,-144.25 260.62,-163.5"/>
<text text-anchor="middle" x="215.12" y="-150" font-family="Helvetica,sans-Serif" font-size="10.00">CDListCmdBlock</text>
</a>
</g>
</g>
<!-- Node5&#45;&gt;Node4 -->
<g id="edge4_Node000004_Node000005" class="edge">
<title>Node5&#45;&gt;Node4</title>
<g id="a_edge4_Node000004_Node000005"><a xlink:title=" ">
<path fill="none" stroke="#9a32cd" stroke-dasharray="5,2" d="M215.12,-132.6C215.12,-117.45 215.12,-97.48 215.12,-86.1"/>
<polygon fill="#9a32cd" stroke="#9a32cd" points="211.63,-132.37 215.13,-142.37 218.63,-132.37 211.63,-132.37"/>
</a>
</g>
<text text-anchor="middle" x="247.38" y="-116.75" font-family="Helvetica,sans-Serif" font-size="10.00" fill="grey"> CurCmdBlock</text>
<text text-anchor="middle" x="247.38" y="-105.5" font-family="Helvetica,sans-Serif" font-size="10.00" fill="grey">FirstCmdBlock</text>
</g>
<!-- Node5&#45;&gt;Node5 -->
<g id="edge5_Node000005_Node000005" class="edge">
<title>Node5&#45;&gt;Node5</title>
<g id="a_edge5_Node000005_Node000005"><a xlink:title=" ">
<path fill="none" stroke="#9a32cd" stroke-dasharray="5,2" d="M272.43,-159.12C276.29,-157.91 278.62,-156.16 278.62,-153.88 278.62,-149.81 271.23,-147.45 261.08,-146.78"/>
<polygon fill="#9a32cd" stroke="#9a32cd" points="271.88,-155.66 262.57,-160.72 273,-162.57 271.88,-155.66"/>
</a>
</g>
<text text-anchor="middle" x="302.25" y="-150" font-family="Helvetica,sans-Serif" font-size="10.00" fill="grey"> NextBlock</text>
</g>
</g>
</svg>
</svg>

<style type='text/css'>
<![CDATA[
[data-mouse-over-selected='false'] { opacity: 0.7; }
[data-mouse-over-selected='true']  { opacity: 1.0; }
]]>
</style>
<script type="application/ecmascript"><![CDATA[
document.addEventListener('DOMContentLoaded', (event) => {
  highlightEdges();
  highlightAdjacentNodes();
});
]]></script>
</svg>
