<?xml version="1.0" encoding="UTF-8" standalone="no"?>
<!DOCTYPE svg PUBLIC "-//W3C//DTD SVG 1.1//EN"
 "http://www.w3.org/Graphics/SVG/1.1/DTD/svg11.dtd">
<!-- Generated by graphviz version 9.0.0 (20230911.1827)
 -->
<!-- Title: CRenderer Pages: 1 -->
<svg width="210pt" height="138pt"
 viewBox="0.00 0.00 210.12 137.75" xmlns="http://www.w3.org/2000/svg" xmlns:xlink="http://www.w3.org/1999/xlink">
<g id="graph0" class="graph" transform="scale(1 1) rotate(0) translate(4 133.75)">
<title>CRenderer</title>
<!-- Node1 -->
<g id="Node000001" class="node">
<title>Node1</title>
<g id="a_Node000001"><a xlink:title=" ">
<polygon fill="#999999" stroke="#666666" points="133.62,-129.75 71.88,-129.75 71.88,-110.5 133.62,-110.5 133.62,-129.75"/>
<text text-anchor="middle" x="102.75" y="-116.25" font-family="Helvetica,sans-Serif" font-size="10.00">CRenderer</text>
</a>
</g>
</g>
<!-- Node2 -->
<g id="Node000002" class="node">
<title>Node2</title>
<g id="a_Node000002"><a xlink:href="class_c_base_renderer.html" target="_top" xlink:title=" ">
<polygon fill="white" stroke="#bfbfbf" points="144.88,-74.5 60.62,-74.5 60.62,-55.25 144.88,-55.25 144.88,-74.5"/>
<text text-anchor="middle" x="102.75" y="-61" font-family="Helvetica,sans-Serif" font-size="10.00">CBaseRenderer</text>
</a>
</g>
</g>
<!-- Node1&#45;&gt;Node2 -->
<g id="edge1_Node000001_Node000002" class="edge">
<title>Node1&#45;&gt;Node2</title>
<g id="a_edge1_Node000001_Node000002"><a xlink:title=" ">
<path fill="none" stroke="#63b8ff" d="M102.75,-98.88C102.75,-90.59 102.75,-81.42 102.75,-74.86"/>
<polygon fill="#63b8ff" stroke="#63b8ff" points="99.25,-98.82 102.75,-108.82 106.25,-98.82 99.25,-98.82"/>
</a>
</g>
</g>
<!-- Node3 -->
<g id="Node000003" class="node">
<title>Node3</title>
<g id="a_Node000003"><a xlink:href="class_c_indexed_renderer.html" target="_top" xlink:title=" ">
<polygon fill="white" stroke="#bfbfbf" points="95.5,-19.25 0,-19.25 0,0 95.5,0 95.5,-19.25"/>
<text text-anchor="middle" x="47.75" y="-5.75" font-family="Helvetica,sans-Serif" font-size="10.00">CIndexedRenderer</text>
</a>
</g>
</g>
<!-- Node2&#45;&gt;Node3 -->
<g id="edge2_Node000002_Node000003" class="edge">
<title>Node2&#45;&gt;Node3</title>
<g id="a_edge2_Node000002_Node000003"><a xlink:title=" ">
<path fill="none" stroke="#63b8ff" d="M85.4,-47.07C76,-37.98 64.77,-27.1 57.03,-19.61"/>
<polygon fill="#63b8ff" stroke="#63b8ff" points="82.96,-49.59 92.58,-54.03 87.83,-44.56 82.96,-49.59"/>
</a>
</g>
</g>
<!-- Node4 -->
<g id="Node000004" class="node">
<title>Node4</title>
<g id="a_Node000004"><a xlink:href="class_c_linear_renderer.html" target="_top" xlink:title=" ">
<polygon fill="white" stroke="#bfbfbf" points="202.12,-19.25 113.38,-19.25 113.38,0 202.12,0 202.12,-19.25"/>
<text text-anchor="middle" x="157.75" y="-5.75" font-family="Helvetica,sans-Serif" font-size="10.00">CLinearRenderer</text>
</a>
</g>
</g>
<!-- Node2&#45;&gt;Node4 -->
<g id="edge3_Node000002_Node000004" class="edge">
<title>Node2&#45;&gt;Node4</title>
<g id="a_edge3_Node000002_Node000004"><a xlink:title=" ">
<path fill="none" stroke="#63b8ff" d="M120.1,-47.07C129.5,-37.98 140.73,-27.1 148.47,-19.61"/>
<polygon fill="#63b8ff" stroke="#63b8ff" points="117.67,-44.56 112.92,-54.03 122.54,-49.59 117.67,-44.56"/>
</a>
</g>
</g>
</g>
</svg>
