<?xml version="1.0" encoding="UTF-8" standalone="no"?>
<!DOCTYPE svg PUBLIC "-//W3C//DTD SVG 1.1//EN"
 "http://www.w3.org/Graphics/SVG/1.1/DTD/svg11.dtd">
<!-- Generated by graphviz version 9.0.0 (20230911.1827)
 -->
<!-- Title: gs memory management Pages: 1 -->
<svg width="351pt" height="64pt"
 viewBox="0.00 0.00 350.75 64.25" xmlns="http://www.w3.org/2000/svg" xmlns:xlink="http://www.w3.org/1999/xlink">

<svg id="main" version="1.1" xmlns="http://www.w3.org/2000/svg" xmlns:xlink="http://www.w3.org/1999/xlink" xml:space="preserve" onload="init(evt)">
<style type="text/css"><![CDATA[
.node, .edge {opacity: 0.7;}
.node.selected, .edge.selected {opacity: 1;}
.edge:hover path { stroke: red; }
.edge:hover polygon { stroke: red; fill: red; }
]]></style>
<script type="application/ecmascript" xlink:href="svg.min.js"/>
<svg id="graph" class="graph">
<g id="graph0" class="graph" transform="scale(1 1) rotate(0) translate(4 60.25)">
<title>gs memory management</title>
<!-- Node1 -->
<g id="Node000001" class="node">
<title>Node1</title>
<g id="a_Node000001"><a xlink:title=" ">
<polygon fill="#999999" stroke="#666666" points="209,-37.25 87.25,-37.25 87.25,-18 209,-18 209,-37.25"/>
<text text-anchor="middle" x="148.12" y="-23.75" font-family="Helvetica,sans-Serif" font-size="10.00">gs memory management</text>
</a>
</g>
</g>
<!-- Node4 -->
<g id="Node000004" class="node">
<title>Node4</title>
<g id="a_Node000004"><a xlink:href="group__gs__mem__areas.html" target="_top" xlink:title=" ">
<polygon fill="white" stroke="#666666" points="342.75,-56.25 245,-56.25 245,-37 342.75,-37 342.75,-56.25"/>
<text text-anchor="middle" x="293.88" y="-42.75" font-family="Helvetica,sans-Serif" font-size="10.00">GS memory &#39;areas&#39;</text>
</a>
</g>
</g>
<!-- Node1&#45;&gt;Node4 -->
<g id="edge3" class="edge">
<title>Node1&#45;&gt;Node4</title>
<path fill="none" stroke="black" d="M220.45,-37.05C228.69,-38.14 236.95,-39.23 244.78,-40.27"/>
<polygon fill="black" stroke="black" points="221.13,-33.61 210.76,-35.77 220.21,-40.55 221.13,-33.61"/>
</g>
<!-- Node3 -->
<g id="Node000003" class="node">
<title>Node3</title>
<g id="a_Node000003"><a xlink:href="group__gs__mem__slots.html" target="_top" xlink:title=" ">
<polygon fill="white" stroke="#666666" points="341.25,-19.25 246.5,-19.25 246.5,0 341.25,0 341.25,-19.25"/>
<text text-anchor="middle" x="293.88" y="-5.75" font-family="Helvetica,sans-Serif" font-size="10.00">GS memory &#39;slots&#39;</text>
</a>
</g>
</g>
<!-- Node1&#45;&gt;Node3 -->
<g id="edge2" class="edge">
<title>Node1&#45;&gt;Node3</title>
<path fill="none" stroke="black" d="M220.6,-18.68C229.26,-17.59 237.93,-16.51 246.1,-15.48"/>
<polygon fill="black" stroke="black" points="220.24,-15.19 210.76,-19.91 221.11,-22.14 220.24,-15.19"/>
</g>
<!-- Node2 -->
<g id="Node000002" class="node">
<title>Node2</title>
<g id="a_Node000002"><a xlink:href="group__pgl__api.html" target="_top" xlink:title=" ">
<polygon fill="white" stroke="#666666" points="51.25,-37.25 0,-37.25 0,-18 51.25,-18 51.25,-37.25"/>
<text text-anchor="middle" x="25.62" y="-23.75" font-family="Helvetica,sans-Serif" font-size="10.00">pgl* API</text>
</a>
</g>
</g>
<!-- Node2&#45;&gt;Node1 -->
<g id="edge1" class="edge">
<title>Node2&#45;&gt;Node1</title>
<path fill="none" stroke="black" d="M62.93,-27.62C70.51,-27.62 78.7,-27.62 86.89,-27.62"/>
<polygon fill="black" stroke="black" points="63.11,-24.13 53.11,-27.63 63.11,-31.13 63.11,-24.13"/>
</g>
</g>
</svg>
</svg>

<style type='text/css'>
<![CDATA[
[data-mouse-over-selected='false'] { opacity: 0.7; }
[data-mouse-over-selected='true']  { opacity: 1.0; }
]]>
</style>
<script type="application/ecmascript"><![CDATA[
document.addEventListener('DOMContentLoaded', (event) => {
  highlightEdges();
  highlightAdjacentNodes();
});
]]></script>
</svg>
