<?xml version="1.0" encoding="UTF-8" standalone="no"?>
<!DOCTYPE svg PUBLIC "-//W3C//DTD SVG 1.1//EN"
 "http://www.w3.org/Graphics/SVG/1.1/DTD/svg11.dtd">
<!-- Generated by graphviz version 9.0.0 (20230911.1827)
 -->
<!-- Title: src/gsmemory.cpp Pages: 1 -->
<svg width="170pt" height="138pt"
 viewBox="0.00 0.00 169.50 137.75" xmlns="http://www.w3.org/2000/svg" xmlns:xlink="http://www.w3.org/1999/xlink">
<g id="graph0" class="graph" transform="scale(1 1) rotate(0) translate(4 133.75)">
<title>src/gsmemory.cpp</title>
<!-- Node1 -->
<g id="Node000001" class="node">
<title>Node1</title>
<g id="a_Node000001"><a xlink:title=" ">
<polygon fill="#999999" stroke="#666666" points="124.38,-129.75 28.88,-129.75 28.88,-110.5 124.38,-110.5 124.38,-129.75"/>
<text text-anchor="middle" x="76.62" y="-116.25" font-family="Helvetica,sans-Serif" font-size="10.00">src/gsmemory.cpp</text>
</a>
</g>
</g>
<!-- Node2 -->
<g id="Node000002" class="node">
<title>Node2</title>
<g id="a_Node000002"><a xlink:href="ps2gl_8h_source.html" target="_top" xlink:title=" ">
<polygon fill="white" stroke="#666666" points="63.25,-74.5 0,-74.5 0,-55.25 63.25,-55.25 63.25,-74.5"/>
<text text-anchor="middle" x="31.62" y="-61" font-family="Helvetica,sans-Serif" font-size="10.00">GL/ps2gl.h</text>
</a>
</g>
</g>
<!-- Node1&#45;&gt;Node2 -->
<g id="edge1_Node000001_Node000002" class="edge">
<title>Node1&#45;&gt;Node2</title>
<g id="a_edge1_Node000001_Node000002"><a xlink:title=" ">
<path fill="none" stroke="#63b8ff" d="M69.19,-110.33C63.04,-103.05 54.11,-92.48 46.5,-83.48"/>
<polygon fill="#63b8ff" stroke="#63b8ff" points="49.32,-81.39 40.19,-76.02 43.98,-85.91 49.32,-81.39"/>
</a>
</g>
</g>
<!-- Node4 -->
<g id="Node000004" class="node">
<title>Node4</title>
<g id="a_Node000004"><a xlink:title=" ">
<polygon fill="#e0e0e0" stroke="#999999" points="161.5,-74.5 81.75,-74.5 81.75,-55.25 161.5,-55.25 161.5,-74.5"/>
<text text-anchor="middle" x="121.62" y="-61" font-family="Helvetica,sans-Serif" font-size="10.00">ps2s/gsmem.h</text>
</a>
</g>
</g>
<!-- Node1&#45;&gt;Node4 -->
<g id="edge3_Node000001_Node000004" class="edge">
<title>Node1&#45;&gt;Node4</title>
<g id="a_edge3_Node000001_Node000004"><a xlink:title=" ">
<path fill="none" stroke="#63b8ff" d="M84.06,-110.33C90.21,-103.05 99.14,-92.48 106.75,-83.48"/>
<polygon fill="#63b8ff" stroke="#63b8ff" points="109.27,-85.91 113.06,-76.02 103.93,-81.39 109.27,-85.91"/>
</a>
</g>
</g>
<!-- Node3 -->
<g id="Node000003" class="node">
<title>Node3</title>
<g id="a_Node000003"><a xlink:href="gl_8h_source.html" target="_top" xlink:title=" ">
<polygon fill="white" stroke="#666666" points="55.38,-19.25 7.88,-19.25 7.88,0 55.38,0 55.38,-19.25"/>
<text text-anchor="middle" x="31.62" y="-5.75" font-family="Helvetica,sans-Serif" font-size="10.00">GL/gl.h</text>
</a>
</g>
</g>
<!-- Node2&#45;&gt;Node3 -->
<g id="edge2_Node000002_Node000003" class="edge">
<title>Node2&#45;&gt;Node3</title>
<g id="a_edge2_Node000002_Node000003"><a xlink:title=" ">
<path fill="none" stroke="#63b8ff" d="M31.62,-55.08C31.62,-48.57 31.62,-39.42 31.62,-31.12"/>
<polygon fill="#63b8ff" stroke="#63b8ff" points="35.13,-31.12 31.63,-21.12 28.13,-31.12 35.13,-31.12"/>
</a>
</g>
</g>
</g>
</svg>
