<?xml version="1.0" encoding="UTF-8" standalone="no"?>
<!DOCTYPE svg PUBLIC "-//W3C//DTD SVG 1.1//EN"
 "http://www.w3.org/Graphics/SVG/1.1/DTD/svg11.dtd">
<!-- Generated by graphviz version 9.0.0 (20230911.1827)
 -->
<!-- Title: Graphical Class Hierarchy Pages: 1 -->
<svg width="322pt" height="64pt"
 viewBox="0.00 0.00 321.50 64.25" xmlns="http://www.w3.org/2000/svg" xmlns:xlink="http://www.w3.org/1999/xlink">
<g id="graph0" class="graph" transform="scale(1 1) rotate(0) translate(4 60.25)">
<title>Graphical Class Hierarchy</title>
<!-- Node0 -->
<g id="Node000000" class="node">
<title>Node0</title>
<g id="a_Node000000"><a xlink:href="class_c_renderer.html" target="_top" xlink:title=" ">
<polygon fill="white" stroke="#666666" points="61.75,-37.25 0,-37.25 0,-18 61.75,-18 61.75,-37.25"/>
<text text-anchor="middle" x="30.88" y="-23.75" font-family="Helvetica,sans-Serif" font-size="10.00">CRenderer</text>
</a>
</g>
</g>
<!-- Node1 -->
<g id="Node000001" class="node">
<title>Node1</title>
<g id="a_Node000001"><a xlink:href="class_c_base_renderer.html" target="_top" xlink:title=" ">
<polygon fill="white" stroke="#666666" points="182,-37.25 97.75,-37.25 97.75,-18 182,-18 182,-37.25"/>
<text text-anchor="middle" x="139.88" y="-23.75" font-family="Helvetica,sans-Serif" font-size="10.00">CBaseRenderer</text>
</a>
</g>
</g>
<!-- Node0&#45;&gt;Node1 -->
<g id="edge62_Node000000_Node000001" class="edge">
<title>Node0&#45;&gt;Node1</title>
<g id="a_edge62_Node000000_Node000001"><a xlink:title=" ">
<path fill="none" stroke="#63b8ff" d="M73.24,-27.62C81.18,-27.62 89.49,-27.62 97.44,-27.62"/>
<polygon fill="#63b8ff" stroke="#63b8ff" points="73.48,-24.13 63.48,-27.63 73.48,-31.13 73.48,-24.13"/>
</a>
</g>
</g>
<!-- Node2 -->
<g id="Node000002" class="node">
<title>Node2</title>
<g id="a_Node000002"><a xlink:href="class_c_indexed_renderer.html" target="_top" xlink:title=" ">
<polygon fill="white" stroke="#666666" points="313.5,-56.25 218,-56.25 218,-37 313.5,-37 313.5,-56.25"/>
<text text-anchor="middle" x="265.75" y="-42.75" font-family="Helvetica,sans-Serif" font-size="10.00">CIndexedRenderer</text>
</a>
</g>
</g>
<!-- Node1&#45;&gt;Node2 -->
<g id="edge63_Node000001_Node000002" class="edge">
<title>Node1&#45;&gt;Node2</title>
<g id="a_edge63_Node000001_Node000002"><a xlink:title=" ">
<path fill="none" stroke="#63b8ff" d="M193.67,-35.72C201.73,-36.96 210.01,-38.23 217.93,-39.44"/>
<polygon fill="#63b8ff" stroke="#63b8ff" points="194.38,-32.29 183.96,-34.23 193.32,-39.21 194.38,-32.29"/>
</a>
</g>
</g>
<!-- Node3 -->
<g id="Node000003" class="node">
<title>Node3</title>
<g id="a_Node000003"><a xlink:href="class_c_linear_renderer.html" target="_top" xlink:title=" ">
<polygon fill="white" stroke="#666666" points="310.12,-19.25 221.38,-19.25 221.38,0 310.12,0 310.12,-19.25"/>
<text text-anchor="middle" x="265.75" y="-5.75" font-family="Helvetica,sans-Serif" font-size="10.00">CLinearRenderer</text>
</a>
</g>
</g>
<!-- Node1&#45;&gt;Node3 -->
<g id="edge64_Node000001_Node000003" class="edge">
<title>Node1&#45;&gt;Node3</title>
<g id="a_edge64_Node000001_Node000003"><a xlink:title=" ">
<path fill="none" stroke="#63b8ff" d="M193.75,-19.94C202.81,-18.63 212.14,-17.27 220.93,-15.99"/>
<polygon fill="#63b8ff" stroke="#63b8ff" points="193.36,-16.46 183.97,-21.36 194.37,-23.39 193.36,-16.46"/>
</a>
</g>
</g>
</g>
</svg>
