<?xml version="1.0" encoding="UTF-8" standalone="no"?>
<!DOCTYPE svg PUBLIC "-//W3C//DTD SVG 1.1//EN"
 "http://www.w3.org/Graphics/SVG/1.1/DTD/svg11.dtd">
<!-- Generated by graphviz version 9.0.0 (20230911.1827)
 -->
<!-- Title: Graphical Class Hierarchy Pages: 1 -->
<svg width="224pt" height="64pt"
 viewBox="0.00 0.00 223.75 64.25" xmlns="http://www.w3.org/2000/svg" xmlns:xlink="http://www.w3.org/1999/xlink">
<g id="graph0" class="graph" transform="scale(1 1) rotate(0) translate(4 60.25)">
<title>Graphical Class Hierarchy</title>
<!-- Node0 -->
<g id="Node000000" class="node">
<title>Node0</title>
<g id="a_Node000000"><a xlink:href="class_c_draw_context.html" target="_top" xlink:title=" ">
<polygon fill="white" stroke="#666666" points="78.25,-37.25 0,-37.25 0,-18 78.25,-18 78.25,-37.25"/>
<text text-anchor="middle" x="39.12" y="-23.75" font-family="Helvetica,sans-Serif" font-size="10.00">CDrawContext</text>
</a>
</g>
</g>
<!-- Node1 -->
<g id="Node000001" class="node">
<title>Node1</title>
<g id="a_Node000001"><a xlink:href="class_c_d_list_draw_context.html" target="_top" xlink:title=" ">
<polygon fill="white" stroke="#666666" points="215.75,-56.25 114.25,-56.25 114.25,-37 215.75,-37 215.75,-56.25"/>
<text text-anchor="middle" x="165" y="-42.75" font-family="Helvetica,sans-Serif" font-size="10.00">CDListDrawContext</text>
</a>
</g>
</g>
<!-- Node0&#45;&gt;Node1 -->
<g id="edge50_Node000000_Node000001" class="edge">
<title>Node0&#45;&gt;Node1</title>
<g id="a_edge50_Node000000_Node000001"><a xlink:title=" ">
<path fill="none" stroke="#63b8ff" d="M90.01,-35.28C97.95,-36.49 106.16,-37.75 114.1,-38.97"/>
<polygon fill="#63b8ff" stroke="#63b8ff" points="90.55,-31.82 80.14,-33.76 89.49,-38.74 90.55,-31.82"/>
</a>
</g>
</g>
<!-- Node2 -->
<g id="Node000002" class="node">
<title>Node2</title>
<g id="a_Node000002"><a xlink:href="class_c_imm_draw_context.html" target="_top" xlink:title=" ">
<polygon fill="white" stroke="#666666" points="213.88,-19.25 116.12,-19.25 116.12,0 213.88,0 213.88,-19.25"/>
<text text-anchor="middle" x="165" y="-5.75" font-family="Helvetica,sans-Serif" font-size="10.00">CImmDrawContext</text>
</a>
</g>
</g>
<!-- Node0&#45;&gt;Node2 -->
<g id="edge51_Node000000_Node000002" class="edge">
<title>Node0&#45;&gt;Node2</title>
<g id="a_edge51_Node000000_Node000002"><a xlink:title=" ">
<path fill="none" stroke="#63b8ff" d="M90.02,-20.38C98.55,-19.13 107.41,-17.85 115.89,-16.62"/>
<polygon fill="#63b8ff" stroke="#63b8ff" points="89.53,-16.91 80.14,-21.81 90.54,-23.84 89.53,-16.91"/>
</a>
</g>
</g>
</g>
</svg>
