<?xml version="1.0" encoding="UTF-8" standalone="no"?>
<!DOCTYPE svg PUBLIC "-//W3C//DTD SVG 1.1//EN"
 "http://www.w3.org/Graphics/SVG/1.1/DTD/svg11.dtd">
<!-- Generated by graphviz version 9.0.0 (20230911.1827)
 -->
<!-- Title: Graphical Class Hierarchy Pages: 1 -->
<svg width="156pt" height="64pt"
 viewBox="0.00 0.00 156.25 64.25" xmlns="http://www.w3.org/2000/svg" xmlns:xlink="http://www.w3.org/1999/xlink">
<g id="graph0" class="graph" transform="scale(1 1) rotate(0) translate(4 60.25)">
<title>Graphical Class Hierarchy</title>
<!-- Node0 -->
<g id="Node000000" class="node">
<title>Node0</title>
<g id="a_Node000000"><a xlink:href="class_c_light.html" target="_top" xlink:title=" ">
<polygon fill="white" stroke="#666666" points="44.5,-37.25 0,-37.25 0,-18 44.5,-18 44.5,-37.25"/>
<text text-anchor="middle" x="22.25" y="-23.75" font-family="Helvetica,sans-Serif" font-size="10.00">CLight</text>
</a>
</g>
</g>
<!-- Node1 -->
<g id="Node000001" class="node">
<title>Node1</title>
<g id="a_Node000001"><a xlink:href="class_c_d_list_light.html" target="_top" xlink:title=" ">
<polygon fill="white" stroke="#666666" points="148.25,-56.25 80.5,-56.25 80.5,-37 148.25,-37 148.25,-56.25"/>
<text text-anchor="middle" x="114.38" y="-42.75" font-family="Helvetica,sans-Serif" font-size="10.00">CDListLight</text>
</a>
</g>
</g>
<!-- Node0&#45;&gt;Node1 -->
<g id="edge54_Node000000_Node000001" class="edge">
<title>Node0&#45;&gt;Node1</title>
<g id="a_edge54_Node000000_Node000001"><a xlink:title=" ">
<path fill="none" stroke="#63b8ff" d="M55.73,-34.47C63.68,-36.15 72.2,-37.94 80.19,-39.63"/>
<polygon fill="#63b8ff" stroke="#63b8ff" points="56.6,-31.08 46.09,-32.44 55.15,-37.93 56.6,-31.08"/>
</a>
</g>
</g>
<!-- Node2 -->
<g id="Node000002" class="node">
<title>Node2</title>
<g id="a_Node000002"><a xlink:href="class_c_imm_light.html" target="_top" xlink:title=" ">
<polygon fill="white" stroke="#666666" points="146.38,-19.25 82.38,-19.25 82.38,0 146.38,0 146.38,-19.25"/>
<text text-anchor="middle" x="114.38" y="-5.75" font-family="Helvetica,sans-Serif" font-size="10.00">CImmLight</text>
</a>
</g>
</g>
<!-- Node0&#45;&gt;Node2 -->
<g id="edge55_Node000000_Node000002" class="edge">
<title>Node0&#45;&gt;Node2</title>
<g id="a_edge55_Node000000_Node000002"><a xlink:title=" ">
<path fill="none" stroke="#63b8ff" d="M55.71,-21.14C64.25,-19.44 73.44,-17.6 81.93,-15.91"/>
<polygon fill="#63b8ff" stroke="#63b8ff" points="55.21,-17.67 46.09,-23.06 56.58,-24.54 55.21,-17.67"/>
</a>
</g>
</g>
</g>
</svg>
