<?xml version="1.0" encoding="UTF-8" standalone="no"?>
<!DOCTYPE svg PUBLIC "-//W3C//DTD SVG 1.1//EN"
 "http://www.w3.org/Graphics/SVG/1.1/DTD/svg11.dtd">
<!-- Generated by graphviz version 9.0.0 (20230911.1827)
 -->
<!-- Title: Graphical Class Hierarchy Pages: 1 -->
<svg width="182pt" height="64pt"
 viewBox="0.00 0.00 181.75 64.25" xmlns="http://www.w3.org/2000/svg" xmlns:xlink="http://www.w3.org/1999/xlink">
<g id="graph0" class="graph" transform="scale(1 1) rotate(0) translate(4 60.25)">
<title>Graphical Class Hierarchy</title>
<!-- Node0 -->
<g id="Node000000" class="node">
<title>Node0</title>
<g id="a_Node000000"><a xlink:href="class_c_lighting.html" target="_top" xlink:title=" ">
<polygon fill="white" stroke="#666666" points="57.25,-37.25 0,-37.25 0,-18 57.25,-18 57.25,-37.25"/>
<text text-anchor="middle" x="28.62" y="-23.75" font-family="Helvetica,sans-Serif" font-size="10.00">CLighting</text>
</a>
</g>
</g>
<!-- Node1 -->
<g id="Node000001" class="node">
<title>Node1</title>
<g id="a_Node000001"><a xlink:href="class_c_d_list_lighting.html" target="_top" xlink:title=" ">
<polygon fill="white" stroke="#666666" points="173.75,-56.25 93.25,-56.25 93.25,-37 173.75,-37 173.75,-56.25"/>
<text text-anchor="middle" x="133.5" y="-42.75" font-family="Helvetica,sans-Serif" font-size="10.00">CDListLighting</text>
</a>
</g>
</g>
<!-- Node0&#45;&gt;Node1 -->
<g id="edge56_Node000000_Node000001" class="edge">
<title>Node0&#45;&gt;Node1</title>
<g id="a_edge56_Node000000_Node000001"><a xlink:title=" ">
<path fill="none" stroke="#63b8ff" d="M68.87,-34.87C76.72,-36.32 84.98,-37.85 92.85,-39.3"/>
<polygon fill="#63b8ff" stroke="#63b8ff" points="69.69,-31.47 59.22,-33.09 68.42,-38.35 69.69,-31.47"/>
</a>
</g>
</g>
<!-- Node2 -->
<g id="Node000002" class="node">
<title>Node2</title>
<g id="a_Node000002"><a xlink:href="class_c_imm_lighting.html" target="_top" xlink:title=" ">
<polygon fill="white" stroke="#666666" points="171.88,-19.25 95.12,-19.25 95.12,0 171.88,0 171.88,-19.25"/>
<text text-anchor="middle" x="133.5" y="-5.75" font-family="Helvetica,sans-Serif" font-size="10.00">CImmLighting</text>
</a>
</g>
</g>
<!-- Node0&#45;&gt;Node2 -->
<g id="edge57_Node000000_Node000002" class="edge">
<title>Node0&#45;&gt;Node2</title>
<g id="a_edge57_Node000000_Node000002"><a xlink:title=" ">
<path fill="none" stroke="#63b8ff" d="M68.92,-20.75C77.4,-19.26 86.36,-17.7 94.78,-16.23"/>
<polygon fill="#63b8ff" stroke="#63b8ff" points="68.47,-17.27 59.23,-22.45 69.68,-24.17 68.47,-17.27"/>
</a>
</g>
</g>
</g>
</svg>
