<?xml version="1.0" encoding="UTF-8" standalone="no"?>
<!DOCTYPE svg PUBLIC "-//W3C//DTD SVG 1.1//EN"
 "http://www.w3.org/Graphics/SVG/1.1/DTD/svg11.dtd">
<!-- Generated by graphviz version 9.0.0 (20230911.1827)
 -->
<!-- Title: Graphical Class Hierarchy Pages: 1 -->
<svg width="268pt" height="1803pt"
 viewBox="0.00 0.00 268.00 1803.25" xmlns="http://www.w3.org/2000/svg" xmlns:xlink="http://www.w3.org/1999/xlink">
<g id="graph0" class="graph" transform="scale(1 1) rotate(0) translate(4 1799.25)">
<title>Graphical Class Hierarchy</title>
<!-- Node0 -->
<g id="Node000000" class="node">
<title>Node0</title>
<g id="a_Node000000"><a xlink:href="class_c_d_list_cmd.html" target="_top" xlink:title=" ">
<polygon fill="white" stroke="#666666" points="66.25,-907.25 0,-907.25 0,-888 66.25,-888 66.25,-907.25"/>
<text text-anchor="middle" x="33.12" y="-893.75" font-family="Helvetica,sans-Serif" font-size="10.00">CDListCmd</text>
</a>
</g>
</g>
<!-- Node1 -->
<g id="Node000001" class="node">
<title>Node1</title>
<g id="a_Node000001"><a xlink:href="class_c_bind_texture_cmd.html" target="_top" xlink:title=" ">
<polygon fill="white" stroke="#666666" points="228.5,-1795.25 133.75,-1795.25 133.75,-1776 228.5,-1776 228.5,-1795.25"/>
<text text-anchor="middle" x="181.12" y="-1781.75" font-family="Helvetica,sans-Serif" font-size="10.00">CBindTextureCmd</text>
</a>
</g>
</g>
<!-- Node0&#45;&gt;Node1 -->
<g id="edge1_Node000000_Node000001" class="edge">
<title>Node0&#45;&gt;Node1</title>
<g id="a_edge1_Node000000_Node000001"><a xlink:title=" ">
<path fill="none" stroke="#63b8ff" d="M34.31,-918.89C35.63,-1045.93 45.14,-1701.31 102.25,-1767.62 110.13,-1776.77 121.64,-1781.78 133.42,-1784.41"/>
<polygon fill="#63b8ff" stroke="#63b8ff" points="37.82,-919.2 34.22,-909.23 30.82,-919.26 37.82,-919.2"/>
</a>
</g>
</g>
<!-- Node2 -->
<g id="Node000002" class="node">
<title>Node2</title>
<g id="a_Node000002"><a xlink:href="class_c_call_list_cmd.html" target="_top" xlink:title=" ">
<polygon fill="white" stroke="#666666" points="219.12,-1758.25 143.12,-1758.25 143.12,-1739 219.12,-1739 219.12,-1758.25"/>
<text text-anchor="middle" x="181.12" y="-1744.75" font-family="Helvetica,sans-Serif" font-size="10.00">CCallListCmd</text>
</a>
</g>
</g>
<!-- Node0&#45;&gt;Node2 -->
<g id="edge2_Node000000_Node000002" class="edge">
<title>Node0&#45;&gt;Node2</title>
<g id="a_edge2_Node000000_Node000002"><a xlink:title=" ">
<path fill="none" stroke="#63b8ff" d="M34.39,-918.75C36.12,-1042.22 47.56,-1667.33 102.25,-1730.62 112.23,-1742.17 128.01,-1747.12 142.77,-1749.01"/>
<polygon fill="#63b8ff" stroke="#63b8ff" points="37.89,-919.04 34.26,-909.08 30.89,-919.13 37.89,-919.04"/>
</a>
</g>
</g>
<!-- Node3 -->
<g id="Node000003" class="node">
<title>Node3</title>
<g id="a_Node000003"><a xlink:href="class_c_color_cmd.html" target="_top" xlink:title=" ">
<polygon fill="white" stroke="#666666" points="213.88,-1721.25 148.38,-1721.25 148.38,-1702 213.88,-1702 213.88,-1721.25"/>
<text text-anchor="middle" x="181.12" y="-1707.75" font-family="Helvetica,sans-Serif" font-size="10.00">CColorCmd</text>
</a>
</g>
</g>
<!-- Node0&#45;&gt;Node3 -->
<g id="edge3_Node000000_Node000003" class="edge">
<title>Node0&#45;&gt;Node3</title>
<g id="a_edge3_Node000000_Node000003"><a xlink:title=" ">
<path fill="none" stroke="#63b8ff" d="M34.48,-918.92C36.66,-1039.52 50.02,-1633.41 102.25,-1693.62 113.43,-1706.52 131.85,-1711.18 147.96,-1712.54"/>
<polygon fill="#63b8ff" stroke="#63b8ff" points="37.98,-919.13 34.31,-909.19 30.98,-919.25 37.98,-919.13"/>
</a>
</g>
</g>
<!-- Node4 -->
<g id="Node000004" class="node">
<title>Node4</title>
<g id="a_Node000004"><a xlink:href="class_c_disable_custom_cmd.html" target="_top" xlink:title=" ">
<polygon fill="white" stroke="#666666" points="235.62,-1684.25 126.62,-1684.25 126.62,-1665 235.62,-1665 235.62,-1684.25"/>
<text text-anchor="middle" x="181.12" y="-1670.75" font-family="Helvetica,sans-Serif" font-size="10.00">CDisableCustomCmd</text>
</a>
</g>
</g>
<!-- Node0&#45;&gt;Node4 -->
<g id="edge4_Node000000_Node000004" class="edge">
<title>Node0&#45;&gt;Node4</title>
<g id="a_edge4_Node000000_Node000004"><a xlink:title=" ">
<path fill="none" stroke="#63b8ff" d="M34.57,-919.02C37.22,-1036.45 52.47,-1599.47 102.25,-1656.62 108.54,-1663.84 117.09,-1668.48 126.24,-1671.4"/>
<polygon fill="#63b8ff" stroke="#63b8ff" points="38.08,-919.18 34.36,-909.26 31.08,-919.33 38.08,-919.18"/>
</a>
</g>
</g>
<!-- Node5 -->
<g id="Node000005" class="node">
<title>Node5</title>
<g id="a_Node000005"><a xlink:href="class_c_draw_arrays_cmd.html" target="_top" xlink:title=" ">
<polygon fill="white" stroke="#666666" points="227.75,-1647.25 134.5,-1647.25 134.5,-1628 227.75,-1628 227.75,-1647.25"/>
<text text-anchor="middle" x="181.12" y="-1633.75" font-family="Helvetica,sans-Serif" font-size="10.00">CDrawArraysCmd</text>
</a>
</g>
</g>
<!-- Node0&#45;&gt;Node5 -->
<g id="edge5_Node000000_Node000005" class="edge">
<title>Node0&#45;&gt;Node5</title>
<g id="a_edge5_Node000000_Node000005"><a xlink:title=" ">
<path fill="none" stroke="#63b8ff" d="M34.67,-918.68C37.77,-1031.91 54.85,-1565.46 102.25,-1619.62 110.38,-1628.92 122.27,-1633.93 134.33,-1636.5"/>
<polygon fill="#63b8ff" stroke="#63b8ff" points="38.18,-918.93 34.41,-909.02 31.18,-919.11 38.18,-918.93"/>
</a>
</g>
</g>
<!-- Node6 -->
<g id="Node000006" class="node">
<title>Node6</title>
<g id="a_Node000006"><a xlink:href="class_c_draw_indexed_arrays_cmd.html" target="_top" xlink:title=" ">
<polygon fill="white" stroke="#666666" points="244.62,-1610.25 117.62,-1610.25 117.62,-1591 244.62,-1591 244.62,-1610.25"/>
<text text-anchor="middle" x="181.12" y="-1596.75" font-family="Helvetica,sans-Serif" font-size="10.00">CDrawIndexedArraysCmd</text>
</a>
</g>
</g>
<!-- Node0&#45;&gt;Node6 -->
<g id="edge6_Node000000_Node000006" class="edge">
<title>Node0&#45;&gt;Node6</title>
<g id="a_edge6_Node000000_Node000006"><a xlink:title=" ">
<path fill="none" stroke="#63b8ff" d="M34.79,-918.95C38.41,-1029.22 57.31,-1531.53 102.25,-1582.62 106.47,-1587.42 111.68,-1591.07 117.4,-1593.84"/>
<polygon fill="#63b8ff" stroke="#63b8ff" points="38.29,-918.9 34.47,-909.02 31.29,-919.13 38.29,-918.9"/>
</a>
</g>
</g>
<!-- Node7 -->
<g id="Node000007" class="node">
<title>Node7</title>
<g id="a_Node000007"><a xlink:href="class_c_empty_list_cmd.html" target="_top" xlink:title=" ">
<polygon fill="white" stroke="#666666" points="224.38,-1573.25 137.88,-1573.25 137.88,-1554 224.38,-1554 224.38,-1573.25"/>
<text text-anchor="middle" x="181.12" y="-1559.75" font-family="Helvetica,sans-Serif" font-size="10.00">CEmptyListCmd</text>
</a>
</g>
</g>
<!-- Node0&#45;&gt;Node7 -->
<g id="edge7_Node000000_Node000007" class="edge">
<title>Node0&#45;&gt;Node7</title>
<g id="a_edge7_Node000000_Node000007"><a xlink:title=" ">
<path fill="none" stroke="#63b8ff" d="M34.91,-918.79C39.04,-1025.1 59.71,-1497.53 102.25,-1545.62 111.17,-1555.71 124.51,-1560.73 137.64,-1563.09"/>
<polygon fill="#63b8ff" stroke="#63b8ff" points="38.41,-918.83 34.54,-908.97 31.42,-919.1 38.41,-918.83"/>
</a>
</g>
</g>
<!-- Node8 -->
<g id="Node000008" class="node">
<title>Node8</title>
<g id="a_Node000008"><a xlink:href="class_c_enable_cmd.html" target="_top" xlink:title=" ">
<polygon fill="white" stroke="#666666" points="217.25,-1536.25 145,-1536.25 145,-1517 217.25,-1517 217.25,-1536.25"/>
<text text-anchor="middle" x="181.12" y="-1522.75" font-family="Helvetica,sans-Serif" font-size="10.00">CEnableCmd</text>
</a>
</g>
</g>
<!-- Node0&#45;&gt;Node8 -->
<g id="edge8_Node000000_Node000008" class="edge">
<title>Node0&#45;&gt;Node8</title>
<g id="a_edge8_Node000000_Node000008"><a xlink:title=" ">
<path fill="none" stroke="#63b8ff" d="M35.05,-918.85C39.74,-1021.53 62.14,-1463.56 102.25,-1508.62 112.77,-1520.44 129.36,-1525.3 144.53,-1527.06"/>
<polygon fill="#63b8ff" stroke="#63b8ff" points="38.55,-918.71 34.61,-908.88 31.56,-919.03 38.55,-918.71"/>
</a>
</g>
</g>
<!-- Node9 -->
<g id="Node000009" class="node">
<title>Node9</title>
<g id="a_Node000009"><a xlink:href="class_c_enable_custom_cmd.html" target="_top" xlink:title=" ">
<polygon fill="white" stroke="#666666" points="234.12,-1499.25 128.12,-1499.25 128.12,-1480 234.12,-1480 234.12,-1499.25"/>
<text text-anchor="middle" x="181.12" y="-1485.75" font-family="Helvetica,sans-Serif" font-size="10.00">CEnableCustomCmd</text>
</a>
</g>
</g>
<!-- Node0&#45;&gt;Node9 -->
<g id="edge9_Node000000_Node000009" class="edge">
<title>Node0&#45;&gt;Node9</title>
<g id="a_edge9_Node000000_Node000009"><a xlink:title=" ">
<path fill="none" stroke="#63b8ff" d="M35.23,-919.12C40.52,-1018.4 64.59,-1429.61 102.25,-1471.62 109.01,-1479.17 118.25,-1483.87 128,-1486.74"/>
<polygon fill="#63b8ff" stroke="#63b8ff" points="38.73,-919.01 34.71,-909.2 31.74,-919.37 38.73,-919.01"/>
</a>
</g>
</g>
<!-- Node10 -->
<g id="Node000010" class="node">
<title>Node10</title>
<g id="a_Node000010"><a xlink:href="class_c_end_list_cmd.html" target="_top" xlink:title=" ">
<polygon fill="white" stroke="#666666" points="219.12,-1462.25 143.12,-1462.25 143.12,-1443 219.12,-1443 219.12,-1462.25"/>
<text text-anchor="middle" x="181.12" y="-1448.75" font-family="Helvetica,sans-Serif" font-size="10.00">CEndListCmd</text>
</a>
</g>
</g>
<!-- Node0&#45;&gt;Node10 -->
<g id="edge10_Node000000_Node000010" class="edge">
<title>Node0&#45;&gt;Node10</title>
<g id="a_edge10_Node000000_Node000010"><a xlink:title=" ">
<path fill="none" stroke="#63b8ff" d="M33.72,-918.75C32.44,-1008.5 32.13,-1357.04 102.25,-1434.62 112.48,-1445.95 128.3,-1450.87 143.02,-1452.79"/>
<polygon fill="#63b8ff" stroke="#63b8ff" points="37.21,-919.02 33.88,-908.97 30.22,-918.91 37.21,-919.02"/>
</a>
</g>
</g>
<!-- Node11 -->
<g id="Node000011" class="node">
<title>Node11</title>
<g id="a_Node000011"><a xlink:href="class_c_light_prop_cmd.html" target="_top" xlink:title=" ">
<polygon fill="white" stroke="#666666" points="223.62,-1425.25 138.62,-1425.25 138.62,-1406 223.62,-1406 223.62,-1425.25"/>
<text text-anchor="middle" x="181.12" y="-1411.75" font-family="Helvetica,sans-Serif" font-size="10.00">CLightPropCmd</text>
</a>
</g>
</g>
<!-- Node0&#45;&gt;Node11 -->
<g id="edge11_Node000000_Node000011" class="edge">
<title>Node0&#45;&gt;Node11</title>
<g id="a_edge11_Node000000_Node000011"><a xlink:title=" ">
<path fill="none" stroke="#63b8ff" d="M33.94,-918.92C33.64,-1005.01 36.96,-1326.06 102.25,-1397.62 111.41,-1407.67 124.98,-1412.66 138.22,-1415"/>
<polygon fill="#63b8ff" stroke="#63b8ff" points="37.44,-919.12 34,-909.1 30.44,-919.08 37.44,-919.12"/>
</a>
</g>
</g>
<!-- Node12 -->
<g id="Node000012" class="node">
<title>Node12</title>
<g id="a_Node000012"><a xlink:href="class_c_matrix_concat_cmd.html" target="_top" xlink:title=" ">
<polygon fill="white" stroke="#666666" points="231.12,-1388.25 131.12,-1388.25 131.12,-1369 231.12,-1369 231.12,-1388.25"/>
<text text-anchor="middle" x="181.12" y="-1374.75" font-family="Helvetica,sans-Serif" font-size="10.00">CMatrixConcatCmd</text>
</a>
</g>
</g>
<!-- Node0&#45;&gt;Node12 -->
<g id="edge12_Node000000_Node000012" class="edge">
<title>Node0&#45;&gt;Node12</title>
<g id="a_edge12_Node000000_Node000012"><a xlink:title=" ">
<path fill="none" stroke="#63b8ff" d="M34.2,-918.91C34.91,-1000.89 41.74,-1295 102.25,-1360.62 109.78,-1368.79 120.2,-1373.6 130.98,-1376.37"/>
<polygon fill="#63b8ff" stroke="#63b8ff" points="37.7,-919.13 34.14,-909.15 30.7,-919.17 37.7,-919.13"/>
</a>
</g>
</g>
<!-- Node13 -->
<g id="Node000013" class="node">
<title>Node13</title>
<g id="a_Node000013"><a xlink:href="class_c_matrix_pop_cmd.html" target="_top" xlink:title=" ">
<polygon fill="white" stroke="#666666" points="224.38,-1351.25 137.88,-1351.25 137.88,-1332 224.38,-1332 224.38,-1351.25"/>
<text text-anchor="middle" x="181.12" y="-1337.75" font-family="Helvetica,sans-Serif" font-size="10.00">CMatrixPopCmd</text>
</a>
</g>
</g>
<!-- Node0&#45;&gt;Node13 -->
<g id="edge13_Node000000_Node000013" class="edge">
<title>Node0&#45;&gt;Node13</title>
<g id="a_edge13_Node000000_Node000013"><a xlink:title=" ">
<path fill="none" stroke="#63b8ff" d="M34.49,-918.68C36.28,-996.15 46.45,-1263.86 102.25,-1323.62 111.34,-1333.36 124.57,-1338.33 137.54,-1340.73"/>
<polygon fill="#63b8ff" stroke="#63b8ff" points="38,-919.02 34.3,-909.1 31,-919.17 38,-919.02"/>
</a>
</g>
</g>
<!-- Node14 -->
<g id="Node000014" class="node">
<title>Node14</title>
<g id="a_Node000014"><a xlink:href="class_c_matrix_push_cmd.html" target="_top" xlink:title=" ">
<polygon fill="white" stroke="#666666" points="227,-1314.25 135.25,-1314.25 135.25,-1295 227,-1295 227,-1314.25"/>
<text text-anchor="middle" x="181.12" y="-1300.75" font-family="Helvetica,sans-Serif" font-size="10.00">CMatrixPushCmd</text>
</a>
</g>
</g>
<!-- Node0&#45;&gt;Node14 -->
<g id="edge14_Node000000_Node000014" class="edge">
<title>Node0&#45;&gt;Node14</title>
<g id="a_edge14_Node000000_Node000014"><a xlink:title=" ">
<path fill="none" stroke="#63b8ff" d="M34.84,-918.7C37.77,-991.78 51.2,-1232.75 102.25,-1286.62 110.74,-1295.59 122.75,-1300.5 134.79,-1303.08"/>
<polygon fill="#63b8ff" stroke="#63b8ff" points="38.35,-918.81 34.48,-908.94 31.36,-919.07 38.35,-918.81"/>
</a>
</g>
</g>
<!-- Node15 -->
<g id="Node000015" class="node">
<title>Node15</title>
<g id="a_Node000015"><a xlink:href="class_c_matrix_set_top_cmd.html" target="_top" xlink:title=" ">
<polygon fill="white" stroke="#666666" points="231.5,-1277.25 130.75,-1277.25 130.75,-1258 231.5,-1258 231.5,-1277.25"/>
<text text-anchor="middle" x="181.12" y="-1263.75" font-family="Helvetica,sans-Serif" font-size="10.00">CMatrixSetTopCmd</text>
</a>
</g>
</g>
<!-- Node0&#45;&gt;Node15 -->
<g id="edge15_Node000000_Node000015" class="edge">
<title>Node0&#45;&gt;Node15</title>
<g id="a_edge15_Node000000_Node000015"><a xlink:title=" ">
<path fill="none" stroke="#63b8ff" d="M35.28,-918.88C39.44,-987.53 55.97,-1201.65 102.25,-1249.62 109.76,-1257.41 119.93,-1262.13 130.43,-1264.92"/>
<polygon fill="#63b8ff" stroke="#63b8ff" points="38.78,-918.8 34.71,-909.01 31.79,-919.2 38.78,-918.8"/>
</a>
</g>
</g>
<!-- Node16 -->
<g id="Node000016" class="node">
<title>Node16</title>
<g id="a_Node000016"><a xlink:href="class_c_next_block_cmd.html" target="_top" xlink:title=" ">
<polygon fill="white" stroke="#666666" points="225.12,-1240.25 137.12,-1240.25 137.12,-1221 225.12,-1221 225.12,-1240.25"/>
<text text-anchor="middle" x="181.12" y="-1226.75" font-family="Helvetica,sans-Serif" font-size="10.00">CNextBlockCmd</text>
</a>
</g>
</g>
<!-- Node0&#45;&gt;Node16 -->
<g id="edge16_Node000000_Node000016" class="edge">
<title>Node0&#45;&gt;Node16</title>
<g id="a_edge16_Node000000_Node000016"><a xlink:title=" ">
<path fill="none" stroke="#63b8ff" d="M35.82,-919.11C41.32,-983.09 60.72,-1170.5 102.25,-1212.62 111.31,-1221.81 124.07,-1226.7 136.63,-1229.2"/>
<polygon fill="#63b8ff" stroke="#63b8ff" points="39.32,-918.92 35.01,-909.24 32.34,-919.5 39.32,-918.92"/>
</a>
</g>
</g>
<!-- Node17 -->
<g id="Node000017" class="node">
<title>Node17</title>
<g id="a_Node000017"><a xlink:href="class_c_set_alpha_func_cmd.html" target="_top" xlink:title=" ">
<polygon fill="white" stroke="#666666" points="233.38,-1203.25 128.88,-1203.25 128.88,-1184 233.38,-1184 233.38,-1203.25"/>
<text text-anchor="middle" x="181.12" y="-1189.75" font-family="Helvetica,sans-Serif" font-size="10.00">CSetAlphaFuncCmd</text>
</a>
</g>
</g>
<!-- Node0&#45;&gt;Node17 -->
<g id="edge17_Node000000_Node000017" class="edge">
<title>Node0&#45;&gt;Node17</title>
<g id="a_edge17_Node000000_Node000017"><a xlink:title=" ">
<path fill="none" stroke="#63b8ff" d="M36.46,-918.87C43.34,-977.42 65.35,-1139.2 102.25,-1175.62 109.46,-1182.74 118.89,-1187.26 128.69,-1190.09"/>
<polygon fill="#63b8ff" stroke="#63b8ff" points="39.98,-918.78 35.37,-909.24 33.02,-919.57 39.98,-918.78"/>
</a>
</g>
</g>
<!-- Node18 -->
<g id="Node000018" class="node">
<title>Node18</title>
<g id="a_Node000018"><a xlink:href="class_c_set_alpha_test_enabled_cmd.html" target="_top" xlink:title=" ">
<polygon fill="white" stroke="#666666" points="249.5,-1166.25 112.75,-1166.25 112.75,-1147 249.5,-1147 249.5,-1166.25"/>
<text text-anchor="middle" x="181.12" y="-1152.75" font-family="Helvetica,sans-Serif" font-size="10.00">CSetAlphaTestEnabledCmd</text>
</a>
</g>
</g>
<!-- Node0&#45;&gt;Node18 -->
<g id="edge18_Node000000_Node000018" class="edge">
<title>Node0&#45;&gt;Node18</title>
<g id="a_edge18_Node000000_Node000018"><a xlink:title=" ">
<path fill="none" stroke="#63b8ff" d="M33.44,-919.08C33.17,-966.12 39.52,-1078.86 102.25,-1138.62 105.57,-1141.78 109.32,-1144.43 113.35,-1146.64"/>
<polygon fill="#63b8ff" stroke="#63b8ff" points="36.94,-919.23 33.62,-909.17 29.94,-919.1 36.94,-919.23"/>
</a>
</g>
</g>
<!-- Node19 -->
<g id="Node000019" class="node">
<title>Node19</title>
<g id="a_Node000019"><a xlink:href="class_c_set_blend_enabled_cmd.html" target="_top" xlink:title=" ">
<polygon fill="white" stroke="#666666" points="239.75,-1129.25 122.5,-1129.25 122.5,-1110 239.75,-1110 239.75,-1129.25"/>
<text text-anchor="middle" x="181.12" y="-1115.75" font-family="Helvetica,sans-Serif" font-size="10.00">CSetBlendEnabledCmd</text>
</a>
</g>
</g>
<!-- Node0&#45;&gt;Node19 -->
<g id="edge19_Node000000_Node000019" class="edge">
<title>Node0&#45;&gt;Node19</title>
<g id="a_edge19_Node000000_Node000019"><a xlink:title=" ">
<path fill="none" stroke="#63b8ff" d="M34.73,-918.88C37.11,-960.47 48.53,-1052.79 102.25,-1101.62 108,-1106.85 114.96,-1110.65 122.33,-1113.4"/>
<polygon fill="#63b8ff" stroke="#63b8ff" points="38.23,-918.84 34.3,-909 31.24,-919.15 38.23,-918.84"/>
</a>
</g>
</g>
<!-- Node20 -->
<g id="Node000020" class="node">
<title>Node20</title>
<g id="a_Node000020"><a xlink:href="class_c_set_blend_mode.html" target="_top" xlink:title=" ">
<polygon fill="white" stroke="#666666" points="224.38,-1092.25 137.88,-1092.25 137.88,-1073 224.38,-1073 224.38,-1092.25"/>
<text text-anchor="middle" x="181.12" y="-1078.75" font-family="Helvetica,sans-Serif" font-size="10.00">CSetBlendMode</text>
</a>
</g>
</g>
<!-- Node0&#45;&gt;Node20 -->
<g id="edge20_Node000000_Node000020" class="edge">
<title>Node0&#45;&gt;Node20</title>
<g id="a_edge20_Node000000_Node000020"><a xlink:title=" ">
<path fill="none" stroke="#63b8ff" d="M36.52,-918.72C41.72,-954.4 57.46,-1026.49 102.25,-1064.62 112.08,-1072.99 125.04,-1077.65 137.57,-1080.2"/>
<polygon fill="#63b8ff" stroke="#63b8ff" points="40.04,-918.7 35.28,-909.24 33.1,-919.6 40.04,-918.7"/>
</a>
</g>
</g>
<!-- Node21 -->
<g id="Node000021" class="node">
<title>Node21</title>
<g id="a_Node000021"><a xlink:href="class_c_set_color_mat_mode_cmd.html" target="_top" xlink:title=" ">
<polygon fill="white" stroke="#666666" points="241.62,-1055.25 120.62,-1055.25 120.62,-1036 241.62,-1036 241.62,-1055.25"/>
<text text-anchor="middle" x="181.12" y="-1041.75" font-family="Helvetica,sans-Serif" font-size="10.00">CSetColorMatModeCmd</text>
</a>
</g>
</g>
<!-- Node0&#45;&gt;Node21 -->
<g id="edge21_Node000000_Node000021" class="edge">
<title>Node0&#45;&gt;Node21</title>
<g id="a_edge21_Node000000_Node000021"><a xlink:title=" ">
<path fill="none" stroke="#63b8ff" d="M39.18,-918.51C47.33,-947.59 66.25,-999.82 102.25,-1027.62 107.63,-1031.78 113.81,-1035.01 120.27,-1037.5"/>
<polygon fill="#63b8ff" stroke="#63b8ff" points="42.62,-917.86 36.71,-909.07 35.85,-919.63 42.62,-917.86"/>
</a>
</g>
</g>
<!-- Node22 -->
<g id="Node000022" class="node">
<title>Node22</title>
<g id="a_Node000022"><a xlink:href="class_c_set_cull_face_dir.html" target="_top" xlink:title=" ">
<polygon fill="white" stroke="#666666" points="225.12,-1018.25 137.12,-1018.25 137.12,-999 225.12,-999 225.12,-1018.25"/>
<text text-anchor="middle" x="181.12" y="-1004.75" font-family="Helvetica,sans-Serif" font-size="10.00">CSetCullFaceDir</text>
</a>
</g>
</g>
<!-- Node0&#45;&gt;Node22 -->
<g id="edge22_Node000000_Node000022" class="edge">
<title>Node0&#45;&gt;Node22</title>
<g id="a_edge22_Node000000_Node000022"><a xlink:title=" ">
<path fill="none" stroke="#63b8ff" d="M43.49,-917.85C54.48,-939.29 74.77,-972.51 102.25,-990.62 112.45,-997.35 124.83,-1001.57 136.7,-1004.23"/>
<polygon fill="#63b8ff" stroke="#63b8ff" points="46.67,-916.39 39.14,-908.95 40.38,-919.47 46.67,-916.39"/>
</a>
</g>
</g>
<!-- Node23 -->
<g id="Node000023" class="node">
<title>Node23</title>
<g id="a_Node000023"><a xlink:href="class_c_set_cur_clut_cmd.html" target="_top" xlink:title=" ">
<polygon fill="white" stroke="#666666" points="226.25,-981.25 136,-981.25 136,-962 226.25,-962 226.25,-981.25"/>
<text text-anchor="middle" x="181.12" y="-967.75" font-family="Helvetica,sans-Serif" font-size="10.00">CSetCurClutCmd</text>
</a>
</g>
</g>
<!-- Node0&#45;&gt;Node23 -->
<g id="edge23_Node000000_Node000023" class="edge">
<title>Node0&#45;&gt;Node23</title>
<g id="a_edge23_Node000000_Node000023"><a xlink:title=" ">
<path fill="none" stroke="#63b8ff" d="M51.19,-915.5C64.08,-927.98 82.83,-944.06 102.25,-953.62 112.58,-958.71 124.4,-962.39 135.66,-965.05"/>
<polygon fill="#63b8ff" stroke="#63b8ff" points="53.87,-913.23 44.33,-908.63 48.92,-918.18 53.87,-913.23"/>
</a>
</g>
</g>
<!-- Node24 -->
<g id="Node000024" class="node">
<title>Node24</title>
<g id="a_Node000024"><a xlink:href="class_c_set_cur_tex_image_cmd.html" target="_top" xlink:title=" ">
<polygon fill="white" stroke="#666666" points="239,-944.25 123.25,-944.25 123.25,-925 239,-925 239,-944.25"/>
<text text-anchor="middle" x="181.12" y="-930.75" font-family="Helvetica,sans-Serif" font-size="10.00">CSetCurTexImageCmd</text>
</a>
</g>
</g>
<!-- Node0&#45;&gt;Node24 -->
<g id="edge24_Node000000_Node000024" class="edge">
<title>Node0&#45;&gt;Node24</title>
<g id="a_edge24_Node000000_Node000024"><a xlink:title=" ">
<path fill="none" stroke="#63b8ff" d="M77.52,-910.04C85.72,-912.3 94.23,-914.58 102.25,-916.62 112.87,-919.33 124.36,-922.08 135.16,-924.59"/>
<polygon fill="#63b8ff" stroke="#63b8ff" points="78.65,-906.72 68.08,-907.41 76.77,-913.47 78.65,-906.72"/>
</a>
</g>
</g>
<!-- Node25 -->
<g id="Node000025" class="node">
<title>Node25</title>
<g id="a_Node000025"><a xlink:href="class_c_set_cur_tex_param_cmd.html" target="_top" xlink:title=" ">
<polygon fill="white" stroke="#666666" points="239.75,-907.25 122.5,-907.25 122.5,-888 239.75,-888 239.75,-907.25"/>
<text text-anchor="middle" x="181.12" y="-893.75" font-family="Helvetica,sans-Serif" font-size="10.00">CSetCurTexParamCmd</text>
</a>
</g>
</g>
<!-- Node0&#45;&gt;Node25 -->
<g id="edge25_Node000000_Node000025" class="edge">
<title>Node0&#45;&gt;Node25</title>
<g id="a_edge25_Node000000_Node000025"><a xlink:title=" ">
<path fill="none" stroke="#63b8ff" d="M77.8,-897.62C91.76,-897.62 107.44,-897.62 122.25,-897.62"/>
<polygon fill="#63b8ff" stroke="#63b8ff" points="78.04,-894.13 68.04,-897.63 78.04,-901.13 78.04,-894.13"/>
</a>
</g>
</g>
<!-- Node26 -->
<g id="Node000026" class="node">
<title>Node26</title>
<g id="a_Node000026"><a xlink:href="class_c_set_depth_func_cmd.html" target="_top" xlink:title=" ">
<polygon fill="white" stroke="#666666" points="233.75,-870.25 128.5,-870.25 128.5,-851 233.75,-851 233.75,-870.25"/>
<text text-anchor="middle" x="181.12" y="-856.75" font-family="Helvetica,sans-Serif" font-size="10.00">CSetDepthFuncCmd</text>
</a>
</g>
</g>
<!-- Node0&#45;&gt;Node26 -->
<g id="edge26_Node000000_Node000026" class="edge">
<title>Node0&#45;&gt;Node26</title>
<g id="a_edge26_Node000000_Node000026"><a xlink:title=" ">
<path fill="none" stroke="#63b8ff" d="M77.52,-885.21C85.72,-882.95 94.23,-880.67 102.25,-878.62 112.87,-875.92 124.36,-873.17 135.16,-870.66"/>
<polygon fill="#63b8ff" stroke="#63b8ff" points="76.77,-881.78 68.08,-887.84 78.65,-888.53 76.77,-881.78"/>
</a>
</g>
</g>
<!-- Node27 -->
<g id="Node000027" class="node">
<title>Node27</title>
<g id="a_Node000027"><a xlink:href="class_c_set_depth_test_enabled_cmd.html" target="_top" xlink:title=" ">
<polygon fill="white" stroke="#666666" points="249.88,-833.25 112.38,-833.25 112.38,-814 249.88,-814 249.88,-833.25"/>
<text text-anchor="middle" x="181.12" y="-819.75" font-family="Helvetica,sans-Serif" font-size="10.00">CSetDepthTestEnabledCmd</text>
</a>
</g>
</g>
<!-- Node0&#45;&gt;Node27 -->
<g id="edge27_Node000000_Node000027" class="edge">
<title>Node0&#45;&gt;Node27</title>
<g id="a_edge27_Node000000_Node000027"><a xlink:title=" ">
<path fill="none" stroke="#63b8ff" d="M51.19,-879.75C64.08,-867.27 82.83,-851.19 102.25,-841.62 108.72,-838.44 115.78,-835.8 122.92,-833.63"/>
<polygon fill="#63b8ff" stroke="#63b8ff" points="48.92,-877.07 44.33,-886.62 53.87,-882.02 48.92,-877.07"/>
</a>
</g>
</g>
<!-- Node28 -->
<g id="Node000028" class="node">
<title>Node28</title>
<g id="a_Node000028"><a xlink:href="class_c_set_depth_write_enabled_cmd.html" target="_top" xlink:title=" ">
<polygon fill="white" stroke="#666666" points="251.38,-796.25 110.88,-796.25 110.88,-777 251.38,-777 251.38,-796.25"/>
<text text-anchor="middle" x="181.12" y="-782.75" font-family="Helvetica,sans-Serif" font-size="10.00">CSetDepthWriteEnabledCmd</text>
</a>
</g>
</g>
<!-- Node0&#45;&gt;Node28 -->
<g id="edge28_Node000000_Node000028" class="edge">
<title>Node0&#45;&gt;Node28</title>
<g id="a_edge28_Node000000_Node000028"><a xlink:title=" ">
<path fill="none" stroke="#63b8ff" d="M43.49,-877.4C54.48,-855.96 74.77,-822.74 102.25,-804.62 107.12,-801.42 112.48,-798.78 118.05,-796.61"/>
<polygon fill="#63b8ff" stroke="#63b8ff" points="40.38,-875.78 39.14,-886.3 46.67,-878.86 40.38,-875.78"/>
</a>
</g>
</g>
<!-- Node29 -->
<g id="Node000029" class="node">
<title>Node29</title>
<g id="a_Node000029"><a xlink:href="class_c_set_do_clipping_cmd.html" target="_top" xlink:title=" ">
<polygon fill="white" stroke="#666666" points="233.38,-759.25 128.88,-759.25 128.88,-740 233.38,-740 233.38,-759.25"/>
<text text-anchor="middle" x="181.12" y="-745.75" font-family="Helvetica,sans-Serif" font-size="10.00">CSetDoClippingCmd</text>
</a>
</g>
</g>
<!-- Node0&#45;&gt;Node29 -->
<g id="edge29_Node000000_Node000029" class="edge">
<title>Node0&#45;&gt;Node29</title>
<g id="a_edge29_Node000000_Node000029"><a xlink:title=" ">
<path fill="none" stroke="#63b8ff" d="M39.18,-876.74C47.33,-847.66 66.25,-795.43 102.25,-767.62 109.94,-761.69 119.24,-757.65 128.71,-754.92"/>
<polygon fill="#63b8ff" stroke="#63b8ff" points="35.85,-875.62 36.71,-886.18 42.62,-877.39 35.85,-875.62"/>
</a>
</g>
</g>
<!-- Node30 -->
<g id="Node000030" class="node">
<title>Node30</title>
<g id="a_Node000030"><a xlink:href="class_c_set_do_cull_face_cmd.html" target="_top" xlink:title=" ">
<polygon fill="white" stroke="#666666" points="235.25,-722.25 127,-722.25 127,-703 235.25,-703 235.25,-722.25"/>
<text text-anchor="middle" x="181.12" y="-708.75" font-family="Helvetica,sans-Serif" font-size="10.00">CSetDoCullFaceCmd</text>
</a>
</g>
</g>
<!-- Node0&#45;&gt;Node30 -->
<g id="edge30_Node000000_Node000030" class="edge">
<title>Node0&#45;&gt;Node30</title>
<g id="a_edge30_Node000000_Node000030"><a xlink:title=" ">
<path fill="none" stroke="#63b8ff" d="M36.52,-876.53C41.72,-840.85 57.46,-768.76 102.25,-730.62 109.22,-724.69 117.78,-720.62 126.63,-717.84"/>
<polygon fill="#63b8ff" stroke="#63b8ff" points="33.1,-875.65 35.28,-886.01 40.04,-876.55 33.1,-875.65"/>
</a>
</g>
</g>
<!-- Node31 -->
<g id="Node000031" class="node">
<title>Node31</title>
<g id="a_Node000031"><a xlink:href="class_c_set_do_smooth_shading_cmd.html" target="_top" xlink:title=" ">
<polygon fill="white" stroke="#666666" points="250.62,-685.25 111.62,-685.25 111.62,-666 250.62,-666 250.62,-685.25"/>
<text text-anchor="middle" x="181.12" y="-671.75" font-family="Helvetica,sans-Serif" font-size="10.00">CSetDoSmoothShadingCmd</text>
</a>
</g>
</g>
<!-- Node0&#45;&gt;Node31 -->
<g id="edge31_Node000000_Node000031" class="edge">
<title>Node0&#45;&gt;Node31</title>
<g id="a_edge31_Node000000_Node000031"><a xlink:title=" ">
<path fill="none" stroke="#63b8ff" d="M34.73,-876.37C37.11,-834.78 48.53,-742.46 102.25,-693.62 105.74,-690.45 109.68,-687.8 113.88,-685.6"/>
<polygon fill="#63b8ff" stroke="#63b8ff" points="31.24,-876.1 34.3,-886.25 38.23,-876.41 31.24,-876.1"/>
</a>
</g>
</g>
<!-- Node32 -->
<g id="Node000032" class="node">
<title>Node32</title>
<g id="a_Node000032"><a xlink:href="class_c_set_draw_buffers.html" target="_top" xlink:title=" ">
<polygon fill="white" stroke="#666666" points="226.62,-648.25 135.62,-648.25 135.62,-629 226.62,-629 226.62,-648.25"/>
<text text-anchor="middle" x="181.12" y="-634.75" font-family="Helvetica,sans-Serif" font-size="10.00">CSetDrawBuffers</text>
</a>
</g>
</g>
<!-- Node0&#45;&gt;Node32 -->
<g id="edge32_Node000000_Node000032" class="edge">
<title>Node0&#45;&gt;Node32</title>
<g id="a_edge32_Node000000_Node000032"><a xlink:title=" ">
<path fill="none" stroke="#63b8ff" d="M33.44,-876.17C33.17,-829.13 39.52,-716.39 102.25,-656.62 111.19,-648.11 123.33,-643.33 135.36,-640.73"/>
<polygon fill="#63b8ff" stroke="#63b8ff" points="29.94,-876.15 33.62,-886.08 36.94,-876.02 29.94,-876.15"/>
</a>
</g>
</g>
<!-- Node33 -->
<g id="Node000033" class="node">
<title>Node33</title>
<g id="a_Node000033"><a xlink:href="class_c_set_frame_buffer_draw_mask_cmd.html" target="_top" xlink:title=" ">
<polygon fill="white" stroke="#666666" points="260,-611.25 102.25,-611.25 102.25,-592 260,-592 260,-611.25"/>
<text text-anchor="middle" x="181.12" y="-597.75" font-family="Helvetica,sans-Serif" font-size="10.00">CSetFrameBufferDrawMaskCmd</text>
</a>
</g>
</g>
<!-- Node0&#45;&gt;Node33 -->
<g id="edge33_Node000000_Node000033" class="edge">
<title>Node0&#45;&gt;Node33</title>
<g id="a_edge33_Node000000_Node000033"><a xlink:title=" ">
<path fill="none" stroke="#63b8ff" d="M36.46,-876.38C43.34,-817.83 65.35,-656.05 102.25,-619.62 105.41,-616.51 109,-613.89 112.86,-611.69"/>
<polygon fill="#63b8ff" stroke="#63b8ff" points="33.02,-875.68 35.37,-886.01 39.98,-876.47 33.02,-875.68"/>
</a>
</g>
</g>
<!-- Node34 -->
<g id="Node000034" class="node">
<title>Node34</title>
<g id="a_Node000034"><a xlink:href="class_c_set_global_ambient_cmd.html" target="_top" xlink:title=" ">
<polygon fill="white" stroke="#666666" points="242,-574.25 120.25,-574.25 120.25,-555 242,-555 242,-574.25"/>
<text text-anchor="middle" x="181.12" y="-560.75" font-family="Helvetica,sans-Serif" font-size="10.00">CSetGlobalAmbientCmd</text>
</a>
</g>
</g>
<!-- Node0&#45;&gt;Node34 -->
<g id="edge34_Node000000_Node000034" class="edge">
<title>Node0&#45;&gt;Node34</title>
<g id="a_edge34_Node000000_Node000034"><a xlink:title=" ">
<path fill="none" stroke="#63b8ff" d="M35.82,-876.14C41.32,-812.16 60.72,-624.75 102.25,-582.62 107.22,-577.59 113.3,-573.84 119.85,-571.07"/>
<polygon fill="#63b8ff" stroke="#63b8ff" points="32.34,-875.75 35.01,-886.01 39.32,-876.33 32.34,-875.75"/>
</a>
</g>
</g>
<!-- Node35 -->
<g id="Node000035" class="node">
<title>Node35</title>
<g id="a_Node000035"><a xlink:href="class_c_set_gs_texture_cmd.html" target="_top" xlink:title=" ">
<polygon fill="white" stroke="#666666" points="232.62,-537.25 129.62,-537.25 129.62,-518 232.62,-518 232.62,-537.25"/>
<text text-anchor="middle" x="181.12" y="-523.75" font-family="Helvetica,sans-Serif" font-size="10.00">CSetGsTextureCmd</text>
</a>
</g>
</g>
<!-- Node0&#45;&gt;Node35 -->
<g id="edge35_Node000000_Node000035" class="edge">
<title>Node0&#45;&gt;Node35</title>
<g id="a_edge35_Node000000_Node000035"><a xlink:title=" ">
<path fill="none" stroke="#63b8ff" d="M35.28,-876.37C39.44,-807.72 55.97,-593.6 102.25,-545.62 109.48,-538.13 119.15,-533.49 129.22,-530.66"/>
<polygon fill="#63b8ff" stroke="#63b8ff" points="31.79,-876.05 34.71,-886.24 38.78,-876.45 31.79,-876.05"/>
</a>
</g>
</g>
<!-- Node36 -->
<g id="Node000036" class="node">
<title>Node36</title>
<g id="a_Node000036"><a xlink:href="class_c_set_interlacing_offset_cmd.html" target="_top" xlink:title=" ">
<polygon fill="white" stroke="#666666" points="245.75,-500.25 116.5,-500.25 116.5,-481 245.75,-481 245.75,-500.25"/>
<text text-anchor="middle" x="181.12" y="-486.75" font-family="Helvetica,sans-Serif" font-size="10.00">CSetInterlacingOffsetCmd</text>
</a>
</g>
</g>
<!-- Node0&#45;&gt;Node36 -->
<g id="edge36_Node000000_Node000036" class="edge">
<title>Node0&#45;&gt;Node36</title>
<g id="a_edge36_Node000000_Node000036"><a xlink:title=" ">
<path fill="none" stroke="#63b8ff" d="M34.84,-876.55C37.77,-803.47 51.2,-562.5 102.25,-508.62 106.26,-504.39 111.05,-501.07 116.25,-498.46"/>
<polygon fill="#63b8ff" stroke="#63b8ff" points="31.36,-876.18 34.48,-886.31 38.35,-876.44 31.36,-876.18"/>
</a>
</g>
</g>
<!-- Node37 -->
<g id="Node000037" class="node">
<title>Node37</title>
<g id="a_Node000037"><a xlink:href="class_c_set_lighting_enabled_cmd.html" target="_top" xlink:title=" ">
<polygon fill="white" stroke="#666666" points="244.62,-463.25 117.62,-463.25 117.62,-444 244.62,-444 244.62,-463.25"/>
<text text-anchor="middle" x="181.12" y="-449.75" font-family="Helvetica,sans-Serif" font-size="10.00">CSetLightingEnabledCmd</text>
</a>
</g>
</g>
<!-- Node0&#45;&gt;Node37 -->
<g id="edge37_Node000000_Node000037" class="edge">
<title>Node0&#45;&gt;Node37</title>
<g id="a_edge37_Node000000_Node000037"><a xlink:title=" ">
<path fill="none" stroke="#63b8ff" d="M34.49,-876.57C36.28,-799.1 46.45,-531.39 102.25,-471.62 106.51,-467.06 111.68,-463.54 117.31,-460.85"/>
<polygon fill="#63b8ff" stroke="#63b8ff" points="31,-876.08 34.3,-886.15 38,-876.23 31,-876.08"/>
</a>
</g>
</g>
<!-- Node38 -->
<g id="Node000038" class="node">
<title>Node38</title>
<g id="a_Node000038"><a xlink:href="class_c_set_material_prop_cmd.html" target="_top" xlink:title=" ">
<polygon fill="white" stroke="#666666" points="237.5,-426.25 124.75,-426.25 124.75,-407 237.5,-407 237.5,-426.25"/>
<text text-anchor="middle" x="181.12" y="-412.75" font-family="Helvetica,sans-Serif" font-size="10.00">CSetMaterialPropCmd</text>
</a>
</g>
</g>
<!-- Node0&#45;&gt;Node38 -->
<g id="edge38_Node000000_Node000038" class="edge">
<title>Node0&#45;&gt;Node38</title>
<g id="a_edge38_Node000000_Node000038"><a xlink:title=" ">
<path fill="none" stroke="#63b8ff" d="M34.2,-876.34C34.91,-794.36 41.74,-500.25 102.25,-434.62 108.27,-428.1 116.15,-423.71 124.58,-420.79"/>
<polygon fill="#63b8ff" stroke="#63b8ff" points="30.7,-876.08 34.14,-886.1 37.7,-876.12 30.7,-876.08"/>
</a>
</g>
</g>
<!-- Node39 -->
<g id="Node000039" class="node">
<title>Node39</title>
<g id="a_Node000039"><a xlink:href="class_c_set_matrix_mode_cmd.html" target="_top" xlink:title=" ">
<polygon fill="white" stroke="#666666" points="235.25,-389.25 127,-389.25 127,-370 235.25,-370 235.25,-389.25"/>
<text text-anchor="middle" x="181.12" y="-375.75" font-family="Helvetica,sans-Serif" font-size="10.00">CSetMatrixModeCmd</text>
</a>
</g>
</g>
<!-- Node0&#45;&gt;Node39 -->
<g id="edge39_Node000000_Node000039" class="edge">
<title>Node0&#45;&gt;Node39</title>
<g id="a_edge39_Node000000_Node000039"><a xlink:title=" ">
<path fill="none" stroke="#63b8ff" d="M33.94,-876.33C33.64,-790.24 36.96,-469.19 102.25,-397.62 108.7,-390.55 117.33,-385.98 126.5,-383.08"/>
<polygon fill="#63b8ff" stroke="#63b8ff" points="30.44,-876.17 34,-886.15 37.44,-876.13 30.44,-876.17"/>
</a>
</g>
</g>
<!-- Node40 -->
<g id="Node000040" class="node">
<title>Node40</title>
<g id="a_Node000040"><a xlink:href="class_c_set_normal_cmd.html" target="_top" xlink:title=" ">
<polygon fill="white" stroke="#666666" points="225.88,-352.25 136.38,-352.25 136.38,-333 225.88,-333 225.88,-352.25"/>
<text text-anchor="middle" x="181.12" y="-338.75" font-family="Helvetica,sans-Serif" font-size="10.00">CSetNormalCmd</text>
</a>
</g>
</g>
<!-- Node0&#45;&gt;Node40 -->
<g id="edge40_Node000000_Node000040" class="edge">
<title>Node0&#45;&gt;Node40</title>
<g id="a_edge40_Node000000_Node000040"><a xlink:title=" ">
<path fill="none" stroke="#63b8ff" d="M33.72,-876.5C32.44,-786.75 32.13,-438.21 102.25,-360.62 110.9,-351.05 123.55,-346.06 136.14,-343.58"/>
<polygon fill="#63b8ff" stroke="#63b8ff" points="30.22,-876.34 33.88,-886.28 37.21,-876.23 30.22,-876.34"/>
</a>
</g>
</g>
<!-- Node41 -->
<g id="Node000041" class="node">
<title>Node41</title>
<g id="a_Node000041"><a xlink:href="class_c_set_rescale_normals_cmd.html" target="_top" xlink:title=" ">
<polygon fill="white" stroke="#666666" points="246.12,-315.25 116.12,-315.25 116.12,-296 246.12,-296 246.12,-315.25"/>
<text text-anchor="middle" x="181.12" y="-301.75" font-family="Helvetica,sans-Serif" font-size="10.00">CSetRescaleNormalsCmd</text>
</a>
</g>
</g>
<!-- Node0&#45;&gt;Node41 -->
<g id="edge41_Node000000_Node000041" class="edge">
<title>Node0&#45;&gt;Node41</title>
<g id="a_edge41_Node000000_Node000041"><a xlink:title=" ">
<path fill="none" stroke="#63b8ff" d="M35.23,-876.13C40.52,-776.85 64.59,-365.64 102.25,-323.62 106.05,-319.39 110.63,-316.05 115.64,-313.42"/>
<polygon fill="#63b8ff" stroke="#63b8ff" points="31.74,-875.88 34.71,-886.05 38.73,-876.24 31.74,-875.88"/>
</a>
</g>
</g>
<!-- Node42 -->
<g id="Node000042" class="node">
<title>Node42</title>
<g id="a_Node000042"><a xlink:href="class_c_set_tex_coord_cmd.html" target="_top" xlink:title=" ">
<polygon fill="white" stroke="#666666" points="230.75,-278.25 131.5,-278.25 131.5,-259 230.75,-259 230.75,-278.25"/>
<text text-anchor="middle" x="181.12" y="-264.75" font-family="Helvetica,sans-Serif" font-size="10.00">CSetTexCoordCmd</text>
</a>
</g>
</g>
<!-- Node0&#45;&gt;Node42 -->
<g id="edge42_Node000000_Node000042" class="edge">
<title>Node0&#45;&gt;Node42</title>
<g id="a_edge42_Node000000_Node000042"><a xlink:title=" ">
<path fill="none" stroke="#63b8ff" d="M35.05,-876.4C39.74,-773.72 62.14,-331.69 102.25,-286.62 109.72,-278.23 120.26,-273.34 131.18,-270.59"/>
<polygon fill="#63b8ff" stroke="#63b8ff" points="31.56,-876.22 34.61,-886.37 38.55,-876.54 31.56,-876.22"/>
</a>
</g>
</g>
<!-- Node43 -->
<g id="Node000043" class="node">
<title>Node43</title>
<g id="a_Node000043"><a xlink:href="class_c_set_tex_enabled_cmd.html" target="_top" xlink:title=" ">
<polygon fill="white" stroke="#666666" points="235.25,-241.25 127,-241.25 127,-222 235.25,-222 235.25,-241.25"/>
<text text-anchor="middle" x="181.12" y="-227.75" font-family="Helvetica,sans-Serif" font-size="10.00">CSetTexEnabledCmd</text>
</a>
</g>
</g>
<!-- Node0&#45;&gt;Node43 -->
<g id="edge43_Node000000_Node000043" class="edge">
<title>Node0&#45;&gt;Node43</title>
<g id="a_edge43_Node000000_Node000043"><a xlink:title=" ">
<path fill="none" stroke="#63b8ff" d="M34.91,-876.46C39.04,-770.15 59.71,-297.72 102.25,-249.62 108.69,-242.35 117.42,-237.71 126.73,-234.8"/>
<polygon fill="#63b8ff" stroke="#63b8ff" points="31.42,-876.15 34.54,-886.28 38.41,-876.42 31.42,-876.15"/>
</a>
</g>
</g>
<!-- Node44 -->
<g id="Node000044" class="node">
<title>Node44</title>
<g id="a_Node000044"><a xlink:href="class_c_set_tex_mode_cmd.html" target="_top" xlink:title=" ">
<polygon fill="white" stroke="#666666" points="230,-204.25 132.25,-204.25 132.25,-185 230,-185 230,-204.25"/>
<text text-anchor="middle" x="181.12" y="-190.75" font-family="Helvetica,sans-Serif" font-size="10.00">CSetTexModeCmd</text>
</a>
</g>
</g>
<!-- Node0&#45;&gt;Node44 -->
<g id="edge44_Node000000_Node000044" class="edge">
<title>Node0&#45;&gt;Node44</title>
<g id="a_edge44_Node000000_Node000044"><a xlink:title=" ">
<path fill="none" stroke="#63b8ff" d="M34.79,-876.3C38.41,-766.03 57.31,-263.72 102.25,-212.62 109.86,-203.98 120.72,-199.04 131.92,-196.33"/>
<polygon fill="#63b8ff" stroke="#63b8ff" points="31.29,-876.12 34.47,-886.23 38.29,-876.35 31.29,-876.12"/>
</a>
</g>
</g>
<!-- Node45 -->
<g id="Node000045" class="node">
<title>Node45</title>
<g id="a_Node000045"><a xlink:href="class_c_set_use_color_material_cmd.html" target="_top" xlink:title=" ">
<polygon fill="white" stroke="#666666" points="247.62,-167.25 114.62,-167.25 114.62,-148 247.62,-148 247.62,-167.25"/>
<text text-anchor="middle" x="181.12" y="-153.75" font-family="Helvetica,sans-Serif" font-size="10.00">CSetUseColorMaterialCmd</text>
</a>
</g>
</g>
<!-- Node0&#45;&gt;Node45 -->
<g id="edge45_Node000000_Node000045" class="edge">
<title>Node0&#45;&gt;Node45</title>
<g id="a_edge45_Node000000_Node000045"><a xlink:title=" ">
<path fill="none" stroke="#63b8ff" d="M34.67,-876.57C37.77,-763.34 54.85,-229.79 102.25,-175.62 105.72,-171.66 109.88,-168.47 114.44,-165.92"/>
<polygon fill="#63b8ff" stroke="#63b8ff" points="31.18,-876.14 34.41,-886.23 38.18,-876.32 31.18,-876.14"/>
</a>
</g>
</g>
<!-- Node46 -->
<g id="Node000046" class="node">
<title>Node46</title>
<g id="a_Node000046"><a xlink:href="class_c_update_gs_context_cmd.html" target="_top" xlink:title=" ">
<polygon fill="white" stroke="#666666" points="241.25,-130.25 121,-130.25 121,-111 241.25,-111 241.25,-130.25"/>
<text text-anchor="middle" x="181.12" y="-116.75" font-family="Helvetica,sans-Serif" font-size="10.00">CUpdateGsContextCmd</text>
</a>
</g>
</g>
<!-- Node0&#45;&gt;Node46 -->
<g id="edge46_Node000000_Node000046" class="edge">
<title>Node0&#45;&gt;Node46</title>
<g id="a_edge46_Node000000_Node000046"><a xlink:title=" ">
<path fill="none" stroke="#63b8ff" d="M34.57,-876.23C37.22,-758.8 52.47,-195.78 102.25,-138.62 107.26,-132.87 113.72,-128.76 120.76,-125.85"/>
<polygon fill="#63b8ff" stroke="#63b8ff" points="31.08,-875.92 34.36,-885.99 38.08,-876.07 31.08,-875.92"/>
</a>
</g>
</g>
<!-- Node47 -->
<g id="Node000047" class="node">
<title>Node47</title>
<g id="a_Node000047"><a xlink:href="class_c_update_prim_cmd.html" target="_top" xlink:title=" ">
<polygon fill="white" stroke="#666666" points="228.5,-93.25 133.75,-93.25 133.75,-74 228.5,-74 228.5,-93.25"/>
<text text-anchor="middle" x="181.12" y="-79.75" font-family="Helvetica,sans-Serif" font-size="10.00">CUpdatePrimCmd</text>
</a>
</g>
</g>
<!-- Node0&#45;&gt;Node47 -->
<g id="edge47_Node000000_Node000047" class="edge">
<title>Node0&#45;&gt;Node47</title>
<g id="a_edge47_Node000000_Node000047"><a xlink:title=" ">
<path fill="none" stroke="#63b8ff" d="M34.48,-876.33C36.66,-755.73 50.02,-161.84 102.25,-101.62 110.16,-92.51 121.69,-87.51 133.46,-84.88"/>
<polygon fill="#63b8ff" stroke="#63b8ff" points="30.98,-876 34.31,-886.06 37.98,-876.12 30.98,-876"/>
</a>
</g>
</g>
<!-- Node48 -->
<g id="Node000048" class="node">
<title>Node48</title>
<g id="a_Node000048"><a xlink:href="class_c_update_renderer_cmd.html" target="_top" xlink:title=" ">
<polygon fill="white" stroke="#666666" points="237.88,-56.25 124.38,-56.25 124.38,-37 237.88,-37 237.88,-56.25"/>
<text text-anchor="middle" x="181.12" y="-42.75" font-family="Helvetica,sans-Serif" font-size="10.00">CUpdateRendererCmd</text>
</a>
</g>
</g>
<!-- Node0&#45;&gt;Node48 -->
<g id="edge48_Node000000_Node000048" class="edge">
<title>Node0&#45;&gt;Node48</title>
<g id="a_edge48_Node000000_Node000048"><a xlink:title=" ">
<path fill="none" stroke="#63b8ff" d="M34.39,-876.5C36.12,-753.03 47.56,-127.92 102.25,-64.62 108.06,-57.91 115.83,-53.42 124.22,-50.47"/>
<polygon fill="#63b8ff" stroke="#63b8ff" points="30.89,-876.12 34.26,-886.17 37.89,-876.21 30.89,-876.12"/>
</a>
</g>
</g>
<!-- Node49 -->
<g id="Node000049" class="node">
<title>Node49</title>
<g id="a_Node000049"><a xlink:href="class_c_update_renderer_context_cmd.html" target="_top" xlink:title=" ">
<polygon fill="white" stroke="#666666" points="254.38,-19.25 107.88,-19.25 107.88,0 254.38,0 254.38,-19.25"/>
<text text-anchor="middle" x="181.12" y="-5.75" font-family="Helvetica,sans-Serif" font-size="10.00">CUpdateRendererContextCmd</text>
</a>
</g>
</g>
<!-- Node0&#45;&gt;Node49 -->
<g id="edge49_Node000000_Node000049" class="edge">
<title>Node0&#45;&gt;Node49</title>
<g id="a_edge49_Node000000_Node000049"><a xlink:title=" ">
<path fill="none" stroke="#63b8ff" d="M34.31,-876.36C35.63,-749.32 45.14,-93.94 102.25,-27.62 104.97,-24.47 108.12,-21.81 111.56,-19.57"/>
<polygon fill="#63b8ff" stroke="#63b8ff" points="30.82,-875.99 34.22,-886.02 37.82,-876.05 30.82,-875.99"/>
</a>
</g>
</g>
</g>
</svg>
